<?xml version="1.0" encoding="UTF-8"?>
<!DOCTYPE svg PUBLIC "-//W3C//DTD SVG 1.1//EN" "http://www.w3.org/Graphics/SVG/1.1/DTD/svg11.dtd">
<!-- Creator: CorelDRAW 2018 (64-Bit) -->
<svg xmlns="http://www.w3.org/2000/svg" xml:space="preserve" width="103.722mm" height="103.722mm" version="1.1" style="shape-rendering:geometricPrecision; text-rendering:geometricPrecision; image-rendering:optimizeQuality; fill-rule:evenodd; clip-rule:evenodd"
viewBox="0 0 1848.44 1848.44"
 xmlns:xlink="http://www.w3.org/1999/xlink">
 <defs>
  <style type="text/css">
   <![CDATA[
    .fil0 {fill:#FFFFFF}
   ]]>
  </style>
 </defs>
 <g id="Слой_x0020_1">
  <metadata id="CorelCorpID_0Corel-Layer"/>
  <path class="fil0" d="M924.22 0c510.43,0 924.22,413.79 924.22,924.22 0,510.43 -413.79,924.22 -924.22,924.22 -510.43,0 -924.22,-413.79 -924.22,-924.22 0,-510.43 413.79,-924.22 924.22,-924.22zm0 131.56c437.78,0 792.67,354.89 792.67,792.67 0,437.78 -354.89,792.67 -792.67,792.67 -437.78,0 -792.67,-354.89 -792.67,-792.67 0,-437.78 354.89,-792.67 792.67,-792.67zm0 14.22c429.92,0 778.44,348.52 778.44,778.44 0,429.92 -348.52,778.44 -778.44,778.44 -429.92,0 -778.44,-348.52 -778.44,-778.44 0,-429.92 348.52,-778.44 778.44,-778.44zm574.01 199.64c3.65,0.16 7.02,0.07 9.98,-0.37 0.62,3.03 -2.04,4.24 -5.04,5.31 1.55,1.57 3.08,3.16 4.62,4.74 1.36,-2.74 2.81,-5.22 6,-4.43 -0.66,2.81 -0.96,6.03 -1.02,9.54 3.45,3.6 6.85,7.26 10.24,10.92 -1.96,-12.97 -1.43,-24.3 7.48,-32.1 21.22,-17.72 49.62,5.26 41.31,20.36 -5.45,8.71 -16.2,6.38 -18.06,3.78 7.97,-6.51 -3.31,-22.33 -13.85,-13.91 -5.64,5.42 -0.37,15.62 7.11,19.06 8.36,5.16 21.03,4.5 27.92,-5.09 -2.04,14.47 -21.57,11.47 -29,8.09 -11.04,-4.53 -19.9,7.13 -4.85,12.67 10.64,3.07 23.02,-4.93 30.29,-9.33 -10.51,10 -20.41,14.19 -31.01,12.08 -1.38,-0.34 -2.59,-0.46 -3.66,-0.4 3.37,3.84 6.69,7.69 9.98,11.59 10.37,-3.23 16.97,-11.57 21.32,-16.53 -5.98,10.73 -13.49,15.78 -19.62,18.54 1.78,2.1 3.57,4.2 5.33,6.32 5.02,-4.8 9.53,-11.33 11.6,-17.94 -0.64,6.5 -5.42,13.27 -10.17,19.71 1.64,2 3.25,4.03 4.87,6.04 1.76,-8.35 3.42,-17.82 7.5,-24.36 -3.23,10.79 -4.67,18.72 -1.2,29.16 1.23,3.88 5.02,7.7 7.5,6.67 8.49,-3.53 -8.89,-27.74 -2.79,-41.84 -1.49,9.65 1.72,21.95 7.45,29.37 7.04,7.9 15.08,3.6 8.41,-5.55 -5.56,-6.36 -13.41,-19.8 -12.14,-31 0.19,9.47 5.19,19.24 11.96,26.03 11.17,10.41 19.41,0.16 7.15,-9.14 -5.6,-4.87 -14.06,-10.3 -16.66,-23.48 5.92,18.04 25.87,29.72 35.05,13.51 3.05,-7.89 -0.04,-20.92 -10.9,-28.59 -9.42,-6.09 -15.29,2.33 -15.58,6.27 -1.26,15.41 20.81,20.89 15.21,4.12 5.31,4.69 7.67,11.16 3.08,17.05 -8.43,6.9 -24.44,-0.88 -25.42,-24.07 0.94,-18.55 -15.38,-36.28 -37.06,-35.01 10.77,-13.55 17.82,2.39 22.13,3.99 3.6,-1.85 -2.3,-13.09 -12.95,-12.99 4.45,-6.29 17.6,-0.3 14.07,-14.03 -0.04,-0.22 -0.04,-0.47 -0.06,-0.71 -0.12,0.1 -0.24,0.21 -0.35,0.3 -13.91,-3.79 -8.79,8.55 -15.33,12.75 0.77,-9.99 -11.16,-16.67 -12.93,-12.98 1.43,4.16 17.85,11.78 2.85,21.08 1.39,-10.35 -2.42,-19.53 -8.93,-26.12 -6.5,-6.58 -15.84,-10.83 -25.84,-10.98 -24.9,-2.82 -31.7,-17.94 -23.91,-25.44 6.55,-3.95 13.25,-1.29 17.47,3.57 -16.98,-5.89 -12.98,14.77 3.86,15 4.16,-0.05 13.44,-5.06 7.6,-14.26 -7.42,-10.74 -21.47,-14.86 -29.59,-12.07 -17.73,7.64 -7.05,26.7 11.67,33.39 -13.34,-2.79 -18.56,-11.11 -23.4,-16.72 -9.11,-12.15 -20.41,-5 -10.53,5.72 6.76,6.78 17.25,12.57 27.26,13.35 -11.95,0.51 -26.16,-8.21 -32.06,-13.36 -9.27,-6.88 -14.81,-0.07 -6.41,7.52 7.5,5.89 20.31,9.69 30.61,8.86 -15.28,4.89 -39.81,-12.98 -44.11,-5.21 -1.23,2.28 2.59,6.12 6.58,7.47 10.87,3.94 19.32,3.01 30.95,0.67 -6.79,3.26 -16.25,4.31 -24.83,5.37 1.73,1.44 3.45,2.92 5.17,4.38 6.79,-3.99 13.89,-7.86 20.56,-8.04 -6.55,1.78 -13.56,5.26 -19,9.36 2.18,1.85 4.37,3.69 6.53,5.56 3.39,-5.43 9.21,-11.81 20.42,-16.54 -5.37,3.69 -14.28,9.17 -18.49,18.25 3.81,3.34 7.61,6.67 11.36,10.08 0.03,-0.79 -0.04,-1.67 -0.25,-2.65 -1.58,-10.15 3.01,-19.64 14.68,-28.47 -5.09,6.56 -14.31,17.73 -12.2,27.47 5.37,15.01 18.3,7.39 14.18,-3.3 -3.1,-7.19 -5.08,-25.76 9.91,-27.23 -10.12,6.35 -11.63,18.2 -6.65,26.41 3.14,7.23 13.59,12.84 19.7,7.86 9.56,-9.4 -6.47,-21.01 -13.85,-13.91 -3.13,-2.36 -4.43,-12.17 5.14,-16.76 16.51,-6.85 39.02,21.28 18.96,40.18 -8.66,7.78 -20.45,7.7 -33.79,5.16 3.51,3.37 6.99,6.78 10.45,10.2zm130.41 168.33c3.43,1.06 6.64,1.84 9.57,2.18 -0.18,3.03 -2.97,3.55 -6.07,3.81 1.08,1.87 2.11,3.78 3.17,5.67 1.99,-2.25 4.01,-4.17 6.85,-2.62 -1.34,2.5 -2.45,5.47 -3.4,8.78 2.39,4.34 4.73,8.72 7.04,13.11 1.48,-12.92 4.95,-23.61 15.5,-28.8 25.1,-11.62 46.58,17.92 34.64,30.35 -7.52,7.01 -17.3,1.98 -18.42,-1.02 9.38,-4.23 2.59,-22.42 -9.78,-17.02 -6.85,3.78 -4.41,15 1.92,20.25 6.74,7.16 19.15,9.79 28.29,2.3 -5.71,13.46 -23.81,5.5 -30.1,0.31 -9.49,-7.24 -21.07,1.73 -7.97,10.98 9.49,5.72 23.51,1.19 31.68,-1.17 -12.75,6.94 -23.38,8.43 -33.07,3.65 -1.16,-0.65 -2.24,-1.06 -3.23,-1.29 2.25,4.56 4.46,9.13 6.64,13.73 10.75,-0.51 19.22,-6.8 24.67,-10.44 -8.47,8.75 -16.96,11.7 -23.57,12.81 1.16,2.47 2.34,4.94 3.47,7.43 6.05,-3.34 12.02,-8.43 15.71,-14.23 -2.27,6.05 -8.56,11.31 -14.76,16.27 1.05,2.33 2.04,4.69 3.07,7.02 3.83,-7.57 7.86,-16.17 13.44,-21.38 -5.91,9.58 -9.35,16.87 -8.71,27.86 0.18,4.07 2.86,8.74 5.52,8.37 9.11,-1.2 -1.4,-29.08 8.14,-41.13 -3.95,8.93 -4.03,21.65 -0.4,30.3 4.76,9.45 13.63,7.37 9.56,-3.19 -3.72,-7.57 -7.83,-22.59 -3.7,-33.08 -2.27,9.19 0.04,19.93 4.82,28.24 8.09,12.94 18.71,5.19 9.28,-6.97 -4.15,-6.17 -10.92,-13.59 -10.02,-27.02 1.05,18.97 17.29,35.41 30.35,22.13 5,-6.84 5.38,-20.22 -3.12,-30.44 -7.52,-8.32 -15.38,-1.71 -16.67,2.03 -5.21,14.55 14.69,25.58 13.62,7.91 3.92,5.91 4.52,12.77 -1.44,17.28 -9.92,4.47 -23.37,-7.18 -18.32,-29.83 5.7,-17.67 -5.46,-39.03 -26.73,-43.42 13.92,-10.29 16.59,6.92 20.34,9.59 3.95,-0.85 1.17,-13.24 -9.14,-15.91 5.93,-4.92 17.08,4.27 17.22,-9.91 0.03,-0.22 0.07,-0.46 0.13,-0.7 -0.15,0.07 -0.29,0.14 -0.41,0.21 -12.46,-7.25 -10.71,5.98 -18.11,8.35 3.33,-9.45 -6.47,-18.99 -9.14,-15.89 0.31,4.39 14.19,15.99 -2.71,21.1 4.01,-9.63 2.71,-19.49 -1.87,-27.54 -4.56,-8.04 -12.49,-14.57 -22.12,-17.3 -23.33,-9.16 -25.98,-25.52 -16.51,-30.76 7.35,-2.13 13.15,2.18 15.95,7.97 -14.87,-10.08 -16.37,10.9 -0.16,15.47 4.04,1.03 14.29,-1.4 11.03,-11.79 -4.38,-12.31 -16.89,-19.92 -25.46,-19.32 -19.1,2.78 -13.72,23.96 2.64,35.27 -12.16,-6.16 -15.06,-15.55 -18.28,-22.21 -5.65,-14.1 -18.41,-10.12 -11.65,2.8 4.77,8.3 13.41,16.6 22.88,19.94 -11.67,-2.6 -23.14,-14.69 -27.51,-21.2 -7.16,-9.04 -14.28,-3.9 -8.15,5.6 5.73,7.63 17.11,14.62 27.28,16.48 -16.03,0.77 -35.1,-22.85 -41.26,-16.45 -1.06,1.12 -0.53,3.25 0.81,5.28l0.65 0.9c0.83,1.04 1.85,2.02 2.96,2.75 9.48,6.61 17.87,7.91 29.72,8.65 -7.39,1.39 -16.75,-0.03 -25.31,-1.23 1.3,1.84 2.56,3.7 3.85,5.54 7.57,-2.1 15.41,-3.98 21.88,-2.44 -6.76,0.02 -14.44,1.57 -20.73,4.11 1.63,2.35 3.29,4.68 4.88,7.04 4.69,-4.35 11.95,-8.99 23.96,-10.64 -6.13,2.15 -16.11,5.13 -22.53,12.77 2.82,4.19 5.59,8.4 8.33,12.65 0.22,-0.73 0.36,-1.58 0.42,-2.53 1.1,-10.21 7.99,-18.19 21.55,-23.7 -6.61,5.02 -18.4,13.43 -18.89,23.37 1.32,15.88 15.77,11.88 14.56,0.48 -1.13,-7.74 1.75,-26.2 16.62,-23.72 -11.41,3.52 -15.94,14.55 -13.27,23.78 1.17,7.8 9.81,15.93 17,12.69 11.67,-6.6 -0.82,-21.96 -9.78,-17.01 -2.42,-3.1 -1.14,-12.92 9.29,-14.86 17.72,-2.35 32.19,30.65 7.92,43.72 -10.33,5.23 -21.62,2.17 -33.77,-3.66 2.52,4.14 4.96,8.32 7.4,12.51zm82.3 196.35c3.01,1.9 5.9,3.46 8.61,4.54 -0.96,2.86 -3.77,2.65 -6.81,2.11 0.55,2.08 1.09,4.15 1.63,6.24 2.48,-1.63 4.91,-2.93 7.22,-0.71 -1.93,2.07 -3.77,4.64 -5.55,7.58 1.17,4.8 2.33,9.62 3.42,14.45 4.76,-12.07 10.89,-21.47 22.42,-23.75 27.25,-4.73 40.34,29.37 25.6,38.28 -9.07,4.82 -17.22,-2.56 -17.53,-5.75 10.16,-1.66 8.3,-20.99 -5.03,-18.97 -7.6,1.87 -8.14,13.34 -3.38,20.05 4.66,8.65 15.96,14.42 26.73,9.55 -9,11.52 -24.41,-0.85 -29.16,-7.49 -7.3,-9.45 -20.8,-3.77 -10.54,8.55 7.68,7.97 22.4,7.22 30.89,7.06 -14.1,3.4 -24.76,2.08 -32.89,-5.04 -0.96,-0.93 -1.9,-1.61 -2.79,-2.09 1,4.97 1.97,9.97 2.86,14.98 10.53,2.3 20.34,-1.59 26.54,-3.69 -10.46,6.27 -19.43,6.91 -26.1,6.26 0.47,2.71 0.89,5.42 1.34,8.12 6.74,-1.66 13.89,-5.05 18.97,-9.72 -3.78,5.29 -11.29,8.75 -18.59,11.95 0.41,2.52 0.85,5.03 1.25,7.56 5.65,-6.32 11.79,-13.62 18.54,-17.21 -8.18,7.72 -13.39,13.87 -15.62,24.66 -0.89,3.97 0.5,9.18 3.17,9.51 9.12,1.19 6.17,-28.46 18.51,-37.62 -6.12,7.6 -9.49,19.87 -8.23,29.16 2.15,10.37 11.26,10.66 10.05,-0.6 -1.63,-8.28 -1.71,-23.85 4.99,-32.91 -4.57,8.29 -5.12,19.26 -2.65,28.52 4.46,14.6 16.72,9.86 10.76,-4.33 -2.41,-7.02 -7.02,-15.96 -2.69,-28.68 -3.89,18.58 7.54,38.67 23.6,29.23 6.58,-5.31 10.42,-18.13 4.85,-30.22 -5.11,-9.97 -14.4,-5.63 -16.63,-2.35 -8.8,12.71 7.57,28.5 11.11,11.17 2.25,6.71 1.06,13.5 -5.86,16.31 -10.74,1.75 -20.72,-12.98 -9.98,-33.56 10.08,-15.59 4.83,-39.11 -14.58,-48.85 16.11,-6.34 14.24,10.98 17.17,14.52 4.04,0.2 4.56,-12.49 -4.71,-17.72 7,-3.22 15.39,8.55 19.2,-5.11 0.08,-0.21 0.19,-0.43 0.3,-0.65 -0.16,0.04 -0.31,0.07 -0.45,0.09 -10.15,-10.23 -11.9,3.01 -19.66,3.38 5.66,-8.27 -1.33,-20.02 -4.7,-17.71 -0.83,4.32 9.57,19.11 -8.08,19.68 6.37,-8.26 7.66,-18.13 5.33,-27.08 -2.33,-8.95 -8.3,-17.3 -16.89,-22.44 -20.16,-14.89 -18.48,-31.38 -7.99,-33.98 7.65,-0.16 12.13,5.51 13.34,11.83 -11.76,-13.59 -18.62,6.29 -4.16,14.91 3.63,2.04 14.17,2.34 13.71,-8.54 -1.06,-13.01 -11.16,-23.61 -19.6,-25.25 -19.17,-2.25 -19.45,19.6 -6.58,34.75 -10.15,-9.09 -10.52,-18.92 -11.91,-26.18 -1.81,-15.08 -15.16,-14.54 -11.97,-0.31 2.46,9.25 8.66,19.51 16.94,25.18 -10.61,-5.53 -18.56,-20.17 -21.09,-27.59 -4.59,-10.59 -12.79,-7.46 -9.32,3.31 3.56,8.84 12.75,18.54 22.08,22.98 -15.68,-3.41 -27.98,-31.15 -35.59,-26.57 -1.02,0.62 -1.27,2.06 -0.97,3.75 0.52,1.35 1.02,2.71 1.54,4.06 0.41,0.7 0.88,1.36 1.4,1.95 7.45,8.84 15.22,12.27 26.47,16.05 -7.43,-0.56 -16.03,-4.29 -23.93,-7.65 0.76,2.08 1.51,4.18 2.26,6.27 7.81,-0.06 15.79,0.16 21.59,3.3 -6.49,-1.71 -14.22,-2.2 -20.92,-1.4 0.95,2.68 1.9,5.34 2.82,8.03 5.64,-2.97 13.84,-5.53 25.8,-4.02 -6.44,0.5 -16.78,0.79 -24.95,6.42 1.63,4.76 3.17,9.55 4.71,14.35 0.38,-0.63 0.72,-1.37 1,-2.22 3.71,-9.59 12.42,-15.5 26.95,-17.32 -7.68,3.14 -21.26,8.2 -24.3,17.69 -2.84,15.67 12.16,15.55 13.94,4.23 0.91,-7.77 8.47,-24.85 22.19,-18.62 -11.94,0.45 -19.16,9.94 -18.98,19.55 -0.88,7.84 5.36,17.93 13.15,16.66 12.98,-3.35 4.89,-21.43 -5.05,-18.97 -1.53,-3.61 2.25,-12.77 12.82,-11.95 17.73,2.32 23.16,37.94 -3.66,44.28 -11.3,2.38 -21.4,-3.47 -31.59,-12.22 1.35,4.64 2.64,9.3 3.92,13.99zm28.44 210.72c2.47,2.68 4.91,5.01 7.31,6.8 -1.69,2.58 -4.44,1.55 -7.31,0.19 -0.02,2.21 -0.06,4.41 -0.09,6.62 2.9,-0.98 5.68,-1.71 7.39,1.1 -2.46,1.53 -4.95,3.6 -7.48,6.04 -0.11,5 -0.28,9.98 -0.48,14.96 7.79,-10.56 16.18,-18.2 28,-17.41 27.54,2.48 31.37,38.8 14.82,43.6 -10.01,2.31 -15.97,-6.93 -15.44,-10.09 10.24,1.03 13.45,-18.12 0.04,-19.63 -7.83,-0.16 -11.31,10.78 -8.46,18.5 2.26,9.56 11.68,18.05 23.34,16.14 -11.67,8.79 -23.36,-7.14 -26.22,-14.78 -4.6,-11.01 -19.12,-9.03 -12.4,5.52 5.37,9.7 19.77,12.78 28.03,14.83 -14.51,-0.36 -24.47,-4.4 -30.47,-13.39 -0.73,-1.21 -1.51,-2.15 -2.3,-2.87 -0.33,5.1 -0.68,10.2 -1.11,15.27 9.61,5.03 20.16,3.8 26.73,3.37 -11.79,3.36 -20.67,1.62 -26.95,-0.75 -0.24,2.74 -0.47,5.49 -0.74,8.23 6.94,0.16 14.75,-1.27 20.88,-4.47 -5.02,4.13 -13.18,5.54 -21.08,6.73 -0.25,2.57 -0.54,5.13 -0.82,7.69 7.13,-4.66 14.98,-10.15 22.47,-11.89 -9.91,5.34 -16.53,9.93 -21.47,19.77 -1.88,3.61 -1.9,9.01 0.59,10.02 8.5,3.51 13.33,-25.89 27.62,-31.56 -7.88,5.77 -14.32,16.74 -15.49,26.04 -0.62,10.57 8.11,13.21 9.86,2.02 0.56,-8.41 4.53,-23.48 13.34,-30.5 -6.56,6.83 -9.94,17.27 -9.95,26.87 0.53,15.25 13.61,13.84 11.52,-1.4 -0.51,-7.41 -2.65,-17.23 4.82,-28.4 -8.56,16.94 -2.73,39.3 15.23,34.34 7.75,-3.42 14.77,-14.82 12.51,-27.92 -2.34,-10.96 -12.46,-9.16 -15.44,-6.58 -11.79,10 -0.06,29.5 7.84,13.67 0.44,7.07 -2.47,13.31 -9.89,14.23 -10.83,-1.09 -16.66,-17.9 -0.96,-34.99 13.79,-12.46 14.79,-36.53 -1.44,-50.97 17.2,-1.95 10.92,14.29 12.83,18.48 3.85,1.24 7.63,-10.88 0.04,-18.33 7.6,-1.3 12.66,12.23 19.87,0.03 0.13,-0.19 0.29,-0.37 0.45,-0.54 -0.16,-0.01 -0.32,-0.02 -0.45,-0.03 -7.16,-12.51 -12.27,-0.18 -19.87,-1.83 7.61,-6.52 3.89,-19.68 0.04,-18.33 -1.92,3.96 4.29,20.94 -12.9,16.92 8.29,-6.33 12.1,-15.53 12.16,-24.78 0.06,-9.25 -3.54,-18.86 -10.5,-26.04 -15.63,-19.6 -9.74,-35.1 1.07,-34.9 7.43,1.83 10.29,8.46 9.82,14.88 -7.83,-16.17 -19.62,1.26 -7.88,13.33 2.99,2.91 13.09,5.92 15.45,-4.7 2.36,-12.85 -4.67,-25.7 -12.39,-29.46 -17.94,-7.14 -23.86,13.9 -15.35,31.86 -7.46,-11.41 -5.27,-20.99 -4.73,-28.38 2.15,-15.03 -10.9,-17.96 -11.49,-3.4 -0.02,9.56 3.31,21.09 9.84,28.71 -8.81,-8.09 -12.7,-24.29 -13.23,-32.11 -1.69,-11.42 -10.43,-10.52 -9.86,0.79 1.14,9.46 7.51,21.21 15.38,27.91 -14.26,-7.35 -18.97,-37.34 -27.51,-34.88 -1.41,0.42 -2.03,2.35 -1.95,4.63l0.23 2.01c0.22,1.13 0.59,2.28 1.09,3.3 4.91,10.46 11.54,15.79 21.42,22.35 -7.12,-2.5 -14.54,-8.44 -21.37,-13.76 0.21,2.25 0.42,4.5 0.6,6.77 7.62,1.97 15.35,4.25 20.19,8.83 -5.87,-3.37 -13.29,-5.86 -20.01,-6.8 0.22,2.85 0.42,5.69 0.62,8.55 6.24,-1.44 14.87,-1.85 26.15,2.75 -6.4,-1.2 -16.58,-3.62 -25.99,-0.18 0.33,5.05 0.66,10.1 0.91,15.17 0.58,-0.54 1.16,-1.22 1.7,-2.05 6.06,-8.3 16.01,-11.76 30.51,-9.75 -8.23,1.04 -22.65,2.42 -28.05,10.8 -6.8,14.4 7.71,18.16 12.37,7.69 2.89,-7.27 14.62,-21.81 26.26,-12.24 -11.65,-2.67 -21.09,4.64 -23.38,13.96 -2.89,7.34 0.53,18.7 8.38,19.49 13.41,0.12 10.27,-19.44 0.04,-19.63 -0.54,-3.89 5.48,-11.74 15.48,-8.22 16.51,6.82 12.55,42.64 -15.01,41.82 -11.63,-0.64 -19.91,-9.04 -27.55,-20.27 0.11,4.86 0.16,9.74 0.19,14.62zm-26.76 211.34c1.66,3.14 3.36,5.92 5.18,8.22 -2.27,2.01 -4.6,0.42 -6.98,-1.59 -0.56,2.08 -1.1,4.17 -1.68,6.24 2.97,-0.17 5.7,-0.07 6.59,2.99 -2.7,0.82 -5.55,2.12 -8.54,3.76 -1.37,4.73 -2.76,9.47 -4.22,14.17 10.13,-8.02 20.1,-13.06 31.19,-9.28 25.97,9.52 20.26,45.6 3.04,45.95 -10.28,-0.37 -13.64,-10.83 -12.31,-13.75 9.63,3.64 17.68,-14.03 5.12,-18.95 -7.52,-2.18 -13.71,7.48 -12.95,15.68 -0.3,9.82 6.61,20.46 18.36,21.63 -13.55,5.48 -20.71,-12.95 -21.5,-21.07 -1.6,-11.83 -16.13,-13.67 -13.4,2.13 2.67,10.76 15.79,17.47 23.23,21.58 -13.92,-4.1 -22.5,-10.58 -25.97,-20.81 -0.35,-1.23 -0.79,-2.25 -1.31,-3.1 -1.63,4.8 -3.33,9.56 -5.04,14.33 7.96,7.22 18.37,8.76 24.79,10.03 -12.13,0.19 -20.22,-3.69 -25.66,-7.57 -0.94,2.57 -1.91,5.12 -2.87,7.68 6.64,1.91 14.48,2.53 21.18,1.03 -5.89,2.68 -14.08,1.94 -21.98,1.06 -0.9,2.38 -1.79,4.77 -2.71,7.14 8.05,-2.65 16.97,-5.86 24.59,-5.6 -10.95,2.59 -18.54,5.31 -25.87,13.54 -2.74,2.99 -4.16,8.2 -2.02,9.82 7.31,5.59 19.58,-21.57 34.84,-23.34 -9.1,3.53 -18.16,12.46 -21.7,21.14 -3.33,10.05 4.41,14.86 9.01,4.5 2.73,-7.99 10.44,-21.52 20.78,-26 -8.11,4.9 -14.07,14.11 -16.57,23.37 -3.43,14.87 9.56,16.89 11.5,1.63 1.43,-7.28 1.89,-17.33 12,-26.18 -12.66,14.15 -12.81,37.26 5.83,37.11 8.36,-1.29 18.1,-10.49 19.32,-23.73 0.56,-11.2 -9.66,-12.08 -13.22,-10.35 -13.98,6.61 -7.69,28.47 4.04,15.23 -1.41,6.95 -5.83,12.22 -13.23,11.19 -10.18,-3.86 -11.45,-21.61 8.13,-34.05 16.54,-8.47 23.74,-31.46 11.79,-49.6 17.12,2.56 6.85,16.63 7.61,21.16 3.4,2.19 10.19,-8.53 4.78,-17.7 7.67,0.71 9.06,15.09 19.18,5.17 0.18,-0.14 0.38,-0.27 0.58,-0.41 -0.15,-0.04 -0.3,-0.1 -0.43,-0.14 -3.68,-13.94 -11.81,-3.35 -18.71,-6.91 9.04,-4.33 8.86,-18 4.78,-17.69 -2.88,3.32 -1.27,21.34 -16.83,13.01 9.65,-3.97 15.7,-11.87 18.16,-20.78 2.45,-8.92 1.46,-19.15 -3.41,-27.88 -10.02,-22.98 -0.31,-36.42 10.07,-33.42 6.71,3.69 7.75,10.83 5.63,16.91 -3.38,-17.64 -19.27,-3.86 -11.05,10.84 2.13,3.58 11.1,9.11 16.14,-0.54 5.6,-11.79 2.14,-26.03 -4.35,-31.65 -15.47,-11.55 -26.64,7.24 -23.06,26.8 -4.25,-12.95 0.33,-21.64 2.77,-28.64 5.97,-13.96 -5.87,-20.16 -10.22,-6.25 -2.5,9.24 -2.26,21.22 2.07,30.28 -6.42,-10.1 -5.98,-26.75 -4.47,-34.44 1.32,-11.47 -7.34,-12.87 -9.72,-1.81 -1.35,9.45 1.76,22.44 7.63,30.96 -11.88,-10.8 -8.66,-40.97 -17.54,-40.82 -1.31,0.04 -2.31,1.38 -2.89,3.24l-0.51 3.26c-0.04,0.99 0.03,1.99 0.22,2.94 2.03,11.38 7.04,18.23 14.89,27.14 -6.2,-4.24 -11.81,-11.84 -17,-18.73 -0.39,2.22 -0.72,4.46 -1.12,6.68 6.81,3.85 13.62,8.04 17.09,13.68 -4.77,-4.74 -11.25,-9.05 -17.47,-11.71 -0.51,2.8 -1.07,5.59 -1.61,8.38 6.39,0.24 14.79,2.1 24.45,9.42 -5.85,-2.8 -15,-7.75 -24.93,-6.91 -0.97,4.96 -1.98,9.89 -3.05,14.82 0.66,-0.36 1.35,-0.85 2.04,-1.46 8.01,-6.45 18.51,-7.22 32,-1.52 -8.23,-1.13 -22.5,-3.52 -29.88,3.17 -10.3,12.15 2.75,19.55 9.95,10.64 4.67,-6.28 19.77,-17.29 28.52,-5.02 -10.56,-5.6 -21.56,-0.99 -26.2,7.43 -4.69,6.35 -4.33,18.2 3.04,21 12.92,3.57 14.96,-16.12 5.12,-18.95 0.49,-3.9 8.33,-9.93 17.09,-3.94 14.19,10.87 1.08,44.44 -25.32,36.52 -11,-3.6 -16.82,-13.73 -21.27,-26.44 -1.16,4.73 -2.33,9.45 -3.57,14.15zm-80.69 196.92c0.78,3.47 1.72,6.62 2.88,9.32 -2.72,1.36 -4.57,-0.83 -6.35,-3.4 -1.1,1.88 -2.21,3.75 -3.32,5.63 2.95,0.59 5.64,1.38 5.71,4.62 -2.83,0.09 -5.95,0.62 -9.29,1.43 -2.59,4.26 -5.25,8.48 -7.91,12.69 11.95,-5.2 22.98,-7.57 32.77,-1 22.62,15.92 7.77,49.29 -8.96,45.17 -9.83,-3.01 -10.37,-13.99 -8.32,-16.46 8.35,6.01 20.71,-8.97 9.85,-16.97 -6.7,-4.05 -15.19,3.68 -16.57,11.79 -2.82,9.42 1.09,21.48 12.14,25.66 -14.51,1.77 -16.66,-17.87 -15.31,-25.92 1.52,-11.85 -12.05,-17.38 -13.5,-1.41 -0.21,11.07 10.72,20.94 16.85,26.85 -12.37,-7.57 -18.98,-16.04 -19.7,-26.82 -0.02,-1.37 -0.22,-2.54 -0.52,-3.53 -2.83,4.22 -5.71,8.41 -8.61,12.58 5.8,9.14 15.55,13.36 21.45,16.26 -11.88,-2.97 -18.69,-8.91 -22.94,-14.11 -1.58,2.26 -3.15,4.51 -4.75,6.75 5.93,3.6 13.39,6.27 20.3,6.56 -6.43,1.06 -14.2,-1.81 -21.65,-4.72 -1.51,2.1 -3.04,4.18 -4.56,6.26 8.52,-0.48 18.08,-1.31 25.43,0.94 -11.25,-0.33 -19.29,0.34 -28.49,6.39 -3.43,2.18 -6.13,6.85 -4.49,8.97 5.6,7.29 24.48,-15.76 39.69,-13.52 -9.71,1.05 -20.76,7.34 -26.44,14.8 -5.82,8.84 0.42,15.5 7.54,6.68 4.7,-7.01 15.65,-18.07 26.79,-19.75 -9.1,2.64 -17.23,10 -22.05,18.29 -7.17,13.48 4.86,18.8 10.68,4.55 3.26,-6.67 6.32,-16.25 18.37,-22.18 -15.89,10.39 -22.01,32.67 -3.98,37.35 8.41,0.91 20.19,-5.45 24.8,-17.93 3.44,-10.67 -6.21,-14.17 -10.09,-13.42 -15.21,2.77 -14.8,25.52 -0.04,15.76 -3.16,6.35 -8.79,10.3 -15.67,7.4 -8.84,-6.36 -5.48,-23.84 16.67,-30.78 18.16,-3.9 31.07,-24.24 24.23,-44.87 15.88,6.91 2.31,17.84 1.87,22.42 2.71,3 12.06,-5.6 9.2,-15.87 7.23,2.68 4.84,16.93 17.19,9.96 0.2,-0.08 0.43,-0.16 0.66,-0.24 -0.13,-0.09 -0.27,-0.18 -0.38,-0.25 0.05,-14.41 -10.54,-6.29 -16.29,-11.51 9.85,-1.84 13.22,-15.1 9.2,-15.85 -3.65,2.47 -6.76,20.28 -19.63,8.2 10.34,-1.34 18.24,-7.4 22.92,-15.38 4.67,-7.98 6.36,-18.1 3.92,-27.8 -3.73,-24.79 9.12,-35.27 18.38,-29.68 5.52,5.3 4.68,12.47 1.06,17.79 1.3,-17.92 -17.61,-8.71 -13.48,7.61 1.13,4.01 8.37,11.67 15.73,3.65 8.46,-9.94 8.81,-24.59 3.99,-31.7 -11.95,-15.15 -27.6,0.1 -29.22,19.92 -0.75,-13.62 5.93,-20.82 10.09,-26.94 9.38,-11.94 -0.45,-21 -8.25,-8.69 -4.8,8.28 -7.68,19.92 -5.83,29.78 -3.59,-11.4 1.15,-27.38 4.6,-34.42 4.24,-10.73 -3.77,-14.32 -8.93,-4.26 -3.75,8.78 -4.11,22.13 -0.64,31.87 -8.67,-13.5 2.24,-41.81 -6.38,-43.95 -1.22,-0.29 -2.48,0.65 -3.49,2.17 -0.54,1.23 -1.08,2.48 -1.62,3.72 -0.22,0.79 -0.35,1.61 -0.41,2.4 -0.98,11.52 2.1,19.44 7.37,30.07 -4.87,-5.68 -8.32,-14.43 -11.54,-22.41 -0.94,2.03 -1.88,4.06 -2.84,6.07 5.57,5.49 11.08,11.3 12.97,17.64 -3.38,-5.8 -8.51,-11.63 -13.82,-15.8 -1.22,2.56 -2.45,5.13 -3.69,7.67 6.09,1.89 13.71,5.87 21.11,15.41 -4.92,-4.21 -12.46,-11.34 -22.26,-13.11 -2.22,4.52 -4.45,9.03 -6.76,13.5 0.71,-0.19 1.49,-0.47 2.3,-0.88 9.4,-4.15 19.75,-2.17 31.3,6.81 -7.65,-3.22 -20.83,-9.23 -29.69,-4.67 -13.09,9.07 -2.39,19.59 6.87,12.84 6.14,-4.85 23.57,-11.58 28.86,2.53 -8.75,-8.13 -20.58,-6.53 -27.23,0.41 -6.18,4.9 -8.9,16.45 -2.5,21.07 11.56,6.8 18.62,-11.69 9.85,-16.98 1.48,-3.64 10.61,-7.43 17.52,0.62 10.9,14.17 -10.46,43.2 -33.9,28.72 -9.71,-6.32 -12.69,-17.64 -13.71,-31.07 -2.34,4.26 -4.7,8.52 -7.11,12.73zm-128.9 169.13c-0.15,3.66 -0.07,7.02 0.37,10 -3.03,0.62 -4.24,-2.05 -5.31,-5.05 -1.58,1.55 -3.16,3.09 -4.74,4.63 2.75,1.36 5.23,2.82 4.44,6.01 -2.81,-0.66 -6.03,-0.95 -9.54,-1.02 -3.61,3.46 -7.26,6.86 -10.93,10.24 12.98,-1.96 24.31,-1.43 32.12,7.48 17.72,21.23 -5.26,49.62 -20.35,41.32 -8.72,-5.45 -6.39,-16.2 -3.78,-18.06 6.52,7.97 22.33,-3.3 13.91,-13.85 -5.43,-5.64 -15.63,-0.37 -19.06,7.11 -5.16,8.36 -4.5,21.03 5.1,27.91 -14.48,-2.03 -11.47,-21.57 -8.09,-28.99 4.53,-11.05 -7.14,-19.9 -12.67,-4.86 -3.06,10.65 4.94,23.02 9.33,30.29 -10,-10.51 -14.19,-20.4 -12.08,-31 0.34,-1.38 0.46,-2.6 0.4,-3.67 -3.83,3.37 -7.69,6.69 -11.59,9.99 3.22,10.37 11.57,16.98 16.53,21.32 -10.74,-5.98 -15.79,-13.5 -18.54,-19.63 -2.11,1.78 -4.2,3.57 -6.32,5.33 4.8,5.03 11.33,9.54 17.94,11.61 -6.5,-0.63 -13.27,-5.43 -19.71,-10.18 -2.01,1.64 -4.04,3.25 -6.05,4.87 8.36,1.75 17.83,3.42 24.36,7.51 -10.79,-3.23 -18.71,-4.67 -29.16,-1.2 -3.88,1.22 -7.7,5.02 -6.66,7.49 3.53,8.5 27.73,-8.88 41.84,-2.79 -9.66,-1.49 -21.96,1.72 -29.38,7.46 -7.9,7.04 -3.6,15.07 5.56,8.4 6.35,-5.55 19.8,-13.41 30.99,-12.14 -9.47,0.19 -19.24,5.19 -26.03,11.96 -10.41,11.17 -0.16,19.41 9.14,7.16 4.87,-5.6 10.3,-14.06 23.49,-16.67 -18.04,5.92 -29.73,25.86 -13.51,35.05 7.88,3.05 20.91,-0.03 28.59,-10.9 6.09,-9.41 -2.33,-15.29 -6.27,-15.58 -15.41,-1.26 -20.9,20.82 -4.12,15.2 -4.69,5.31 -11.16,7.67 -17.06,3.08 -6.9,-8.43 0.88,-24.44 24.07,-25.43 18.54,0.94 36.28,-15.38 35.01,-37.06 13.55,10.78 -2.38,17.82 -3.99,22.13 1.85,3.6 13.09,-2.29 13,-12.95 6.29,4.46 0.29,17.6 14.03,14.07 0.22,-0.03 0.46,-0.04 0.71,-0.06 -0.11,-0.12 -0.22,-0.24 -0.3,-0.34 3.78,-13.91 -8.55,-8.8 -12.75,-15.33 9.99,0.77 16.67,-11.16 12.98,-12.94 -4.16,1.44 -11.77,17.85 -21.08,2.85 10.35,1.39 19.54,-2.42 26.12,-8.92 6.58,-6.5 10.84,-15.85 10.98,-25.85 2.81,-24.9 17.93,-31.7 25.43,-23.91 3.96,6.55 1.3,13.26 -3.57,17.46 5.89,-16.97 -14.76,-12.98 -15,3.86 0.05,4.17 5.06,13.44 14.26,7.6 10.75,-7.41 14.86,-21.46 12.07,-29.59 -7.63,-17.73 -26.7,-7.04 -33.39,11.68 2.79,-13.34 11.12,-18.57 16.72,-23.41 12.14,-9.1 4.99,-20.4 -5.72,-10.53 -6.78,6.76 -12.57,17.26 -13.34,27.26 -0.51,-11.94 8.2,-26.15 13.35,-32.06 6.88,-9.26 0.07,-14.81 -7.52,-6.41 -5.89,7.5 -9.7,20.31 -8.87,30.62 -4.89,-15.29 12.98,-39.81 5.21,-44.12 -2.28,-1.23 -6.11,2.59 -7.47,6.58 -3.93,10.87 -3.01,19.31 -0.67,30.95 -3.26,-6.8 -4.31,-16.25 -5.37,-24.85 -1.45,1.74 -2.92,3.46 -4.39,5.19 4,6.79 7.87,13.89 8.06,20.56 -1.78,-6.55 -5.28,-13.57 -9.38,-19 -1.85,2.18 -3.69,4.37 -5.56,6.52 5.43,3.4 11.82,9.22 16.55,20.44 -3.69,-5.38 -9.17,-14.29 -18.26,-18.51 -3.33,3.81 -6.67,7.62 -10.08,11.36 0.79,0.03 1.68,-0.04 2.65,-0.24 10.15,-1.58 19.64,3.01 28.47,14.68 -6.56,-5.08 -17.73,-14.3 -27.47,-12.2 -15,5.38 -7.39,18.3 3.3,14.19 7.19,-3.1 25.77,-5.09 27.23,9.9 -6.35,-10.12 -18.2,-11.62 -26.41,-6.65 -7.23,3.15 -12.84,13.6 -7.86,19.7 9.4,9.57 21.01,-6.47 13.91,-13.85 2.37,-3.13 12.17,-4.44 16.76,5.13 6.85,16.51 -21.28,39.03 -40.18,18.97 -7.78,-8.67 -7.7,-20.46 -5.15,-33.8 -3.37,3.52 -6.78,6.99 -10.21,10.45zm-1157.61 -1148c0.16,-3.65 0.07,-7.02 -0.36,-9.98 3.02,-0.62 4.24,2.04 5.31,5.04 1.57,-1.55 3.16,-3.08 4.74,-4.62 -2.74,-1.35 -5.21,-2.81 -4.43,-6 2.81,0.65 6.03,0.95 9.54,1.02 3.6,-3.46 7.25,-6.85 10.93,-10.24 -12.97,1.96 -24.3,1.43 -32.09,-7.49 -17.73,-21.22 5.25,-49.62 20.35,-41.31 8.72,5.46 6.39,16.2 3.78,18.06 -6.52,-7.97 -22.33,3.31 -13.91,13.85 5.42,5.64 15.62,0.37 19.06,-7.11 5.16,-8.36 4.5,-21.03 -5.09,-27.91 14.47,2.03 11.47,21.57 8.09,28.99 -4.53,11.04 7.13,19.9 12.66,4.86 3.07,-10.65 -4.93,-23.02 -9.33,-30.29 10,10.51 14.19,20.4 12.08,31 -0.34,1.38 -0.45,2.59 -0.4,3.66 3.83,-3.37 7.69,-6.69 11.59,-9.98 -3.23,-10.37 -11.57,-16.97 -16.53,-21.32 10.73,5.97 15.78,13.48 18.54,19.61 2.1,-1.78 4.2,-3.57 6.32,-5.33 -4.79,-5.02 -11.32,-9.53 -17.93,-11.59 6.5,0.63 13.26,5.42 19.7,10.17 2.01,-1.64 4.03,-3.25 6.05,-4.87 -8.36,-1.75 -17.82,-3.42 -24.35,-7.5 10.78,3.23 18.71,4.67 29.17,1.2 3.87,-1.22 7.7,-5.02 6.66,-7.5 -3.53,-8.49 -27.74,8.89 -41.84,2.79 9.65,1.5 21.95,-1.72 29.37,-7.45 7.9,-7.04 3.6,-15.08 -5.55,-8.41 -6.35,5.56 -19.8,13.42 -31,12.14 9.48,-0.19 19.24,-5.19 26.04,-11.96 10.4,-11.17 0.16,-19.41 -9.15,-7.15 -4.88,5.6 -10.3,14.06 -23.49,16.67 18.04,-5.92 29.72,-25.87 13.51,-35.06 -7.89,-3.05 -20.92,0.04 -28.59,10.9 -6.09,9.41 2.33,15.29 6.27,15.58 15.41,1.26 20.9,-20.82 4.12,-15.21 4.69,-5.31 11.16,-7.67 17.06,-3.08 6.89,8.43 -0.89,24.44 -24.07,25.42 -18.55,-0.94 -36.29,15.38 -35.01,37.07 -13.55,-10.78 2.38,-17.82 3.99,-22.13 -1.85,-3.6 -13.09,2.29 -12.99,12.95 -6.29,-4.46 -0.3,-17.61 -14.02,-14.07 -0.22,0.03 -0.46,0.04 -0.71,0.06 0.11,0.12 0.21,0.24 0.3,0.34 -3.79,13.91 8.55,8.8 12.75,15.33 -10,-0.77 -16.68,11.16 -12.98,12.93 4.15,-1.43 11.77,-17.85 21.08,-2.85 -10.34,-1.38 -19.53,2.43 -26.12,8.93 -6.58,6.5 -10.84,15.84 -10.98,25.84 -2.81,24.9 -17.94,31.7 -25.43,23.92 -3.96,-6.55 -1.3,-13.26 3.57,-17.47 -5.89,16.98 14.77,12.98 15,-3.85 -0.05,-4.17 -5.06,-13.44 -14.26,-7.6 -10.74,7.42 -14.86,21.47 -12.06,29.59 7.63,17.73 26.7,7.05 33.38,-11.67 -2.79,13.34 -11.11,18.57 -16.71,23.41 -12.15,9.1 -5,20.4 5.72,10.53 6.78,-6.75 12.57,-17.25 13.35,-27.25 0.51,11.94 -8.2,26.15 -13.35,32.05 -6.88,9.27 -0.07,14.81 7.51,6.42 5.89,-7.51 9.7,-20.31 8.87,-30.62 4.88,15.28 -12.98,39.81 -5.22,44.11 2.27,1.24 6.12,-2.58 7.48,-6.58 3.93,-10.87 3.01,-19.32 0.66,-30.95 3.26,6.8 4.32,16.25 5.37,24.84 1.45,-1.74 2.92,-3.46 4.38,-5.18 -4,-6.79 -7.87,-13.89 -8.05,-20.55 1.77,6.54 5.27,13.56 9.36,18.99 1.86,-2.18 3.69,-4.37 5.56,-6.53 -5.42,-3.39 -11.81,-9.21 -16.53,-20.42 3.68,5.37 9.16,14.28 18.25,18.49 3.33,-3.8 6.67,-7.61 10.07,-11.36 -0.79,-0.03 -1.66,0.05 -2.64,0.25 -10.15,1.58 -19.63,-3.01 -28.47,-14.69 6.56,5.09 17.72,14.31 27.47,12.2 15,-5.38 7.39,-18.31 -3.31,-14.19 -7.19,3.1 -25.76,5.08 -27.22,-9.91 6.35,10.12 18.19,11.63 26.41,6.66 7.24,-3.15 12.84,-13.6 7.86,-19.71 -9.4,-9.56 -21.01,6.47 -13.91,13.85 -2.37,3.13 -12.17,4.44 -16.76,-5.13 -6.86,-16.51 21.28,-39.03 40.18,-18.97 7.77,8.66 7.69,20.45 5.15,33.79 3.37,-3.51 6.78,-6.99 10.2,-10.45zm168.35 -130.41c1.06,-3.43 1.83,-6.64 2.18,-9.56 3.02,0.18 3.54,2.97 3.8,6.06 1.87,-1.08 3.78,-2.11 5.67,-3.17 -2.25,-1.99 -4.17,-4.01 -2.62,-6.83 2.5,1.33 5.47,2.44 8.77,3.4 4.34,-2.39 8.72,-4.73 13.11,-7.05 -12.91,-1.48 -23.6,-4.96 -28.8,-15.5 -11.62,-25.1 17.93,-46.58 30.36,-34.65 7,7.52 1.98,17.3 -1.03,18.43 -4.23,-9.38 -22.42,-2.59 -17.02,9.78 3.78,6.85 14.99,4.4 20.24,-1.93 7.15,-6.73 9.79,-19.15 2.3,-28.28 13.46,5.71 5.49,23.8 0.31,30.09 -7.24,9.5 1.73,21.08 10.98,7.97 5.72,-9.49 1.19,-23.51 -1.17,-31.68 6.94,12.75 8.42,23.38 3.65,33.07 -0.65,1.15 -1.06,2.23 -1.29,3.22 4.55,-2.25 9.12,-4.46 13.72,-6.63 -0.51,-10.76 -6.8,-19.22 -10.44,-24.67 8.75,8.47 11.69,16.95 12.8,23.57 2.48,-1.17 4.94,-2.34 7.44,-3.48 -3.34,-6.04 -8.44,-12.03 -14.23,-15.7 6.05,2.27 11.3,8.56 16.26,14.76 2.33,-1.06 4.69,-2.04 7.03,-3.08 -7.57,-3.83 -16.17,-7.86 -21.38,-13.44 9.58,5.91 16.86,9.35 27.86,8.71 4.06,-0.18 8.74,-2.86 8.37,-5.52 -1.21,-9.11 -29.08,1.4 -41.13,-8.14 8.92,3.95 21.65,4.03 30.3,0.4 9.45,-4.76 7.37,-13.63 -3.19,-9.56 -7.58,3.72 -22.6,7.83 -33.08,3.7 9.18,2.27 19.93,-0.04 28.24,-4.82 12.94,-8.09 5.18,-18.71 -6.98,-9.28 -6.16,4.15 -13.59,10.92 -27.01,10.03 18.96,-1.06 35.41,-17.3 22.12,-30.37 -6.83,-4.99 -20.21,-5.37 -30.43,3.13 -8.32,7.52 -1.71,15.37 2.03,16.67 14.55,5.21 25.57,-14.69 7.91,-13.62 5.91,-3.92 12.77,-4.52 17.28,1.43 4.47,9.93 -7.18,23.38 -29.83,18.33 -17.68,-5.71 -39.03,5.46 -43.42,26.74 -10.29,-13.92 6.92,-16.6 9.59,-20.35 -0.86,-3.95 -13.24,-1.17 -15.91,9.14 -4.91,-5.93 4.27,-17.08 -9.9,-17.22 -0.23,-0.03 -0.46,-0.08 -0.7,-0.13 0.07,0.14 0.14,0.29 0.2,0.41 -7.25,12.46 5.98,10.71 8.35,18.11 -9.45,-3.33 -19,6.47 -15.89,9.14 4.39,-0.32 15.99,-14.19 21.1,2.71 -9.63,-4.01 -19.49,-2.71 -27.54,1.86 -8.05,4.57 -14.57,12.5 -17.3,22.12 -9.16,23.34 -25.53,25.98 -30.76,16.52 -2.13,-7.35 2.18,-13.15 7.98,-15.95 -10.09,14.87 10.9,16.36 15.47,0.16 1.03,-4.04 -1.4,-14.29 -11.79,-11.03 -12.3,4.38 -19.91,16.89 -19.31,25.45 2.78,19.11 23.95,13.72 35.27,-2.64 -6.15,12.17 -15.55,15.06 -22.21,18.29 -14.1,5.65 -10.12,18.41 2.79,11.65 8.3,-4.77 16.6,-13.41 19.95,-22.88 -2.6,11.67 -14.69,23.14 -21.2,27.51 -9.04,7.16 -3.89,14.28 5.6,8.14 7.62,-5.72 14.62,-17.11 16.48,-27.28 0.76,16.03 -22.85,35.1 -16.46,41.26 1.11,1.06 3.2,0.54 5.2,-0.76l1.06 -0.77c1,-0.82 1.94,-1.81 2.66,-2.88 6.61,-9.48 7.9,-17.88 8.65,-29.72 1.38,7.39 -0.03,16.74 -1.23,25.29 1.84,-1.29 3.69,-2.55 5.54,-3.84 -2.1,-7.58 -3.98,-15.41 -2.45,-21.88 0.02,6.76 1.58,14.43 4.12,20.72 2.34,-1.63 4.67,-3.28 7.03,-4.88 -4.35,-4.68 -8.98,-11.94 -10.64,-23.95 2.16,6.12 5.14,16.1 12.77,22.52 4.18,-2.82 8.41,-5.58 12.65,-8.32 -0.74,-0.22 -1.57,-0.36 -2.52,-0.42 -10.22,-1.1 -18.19,-8 -23.7,-21.55 5.02,6.61 13.43,18.41 23.37,18.89 15.88,-1.31 11.88,-15.76 0.48,-14.55 -7.75,1.13 -26.2,-1.75 -23.72,-16.62 3.51,11.41 14.55,15.94 23.78,13.27 7.8,-1.17 15.93,-9.81 12.69,-17 -6.61,-11.67 -21.97,0.82 -17.01,9.78 -3.1,2.42 -12.92,1.14 -14.86,-9.29 -2.35,-17.72 30.65,-32.19 43.72,-7.92 5.23,10.32 2.18,21.61 -3.66,33.76 4.14,-2.52 8.32,-4.96 12.52,-7.4zm196.34 -82.3c1.89,-3.01 3.46,-5.89 4.54,-8.61 2.85,0.95 2.65,3.76 2.1,6.8 2.09,-0.54 4.16,-1.09 6.25,-1.62 -1.63,-2.48 -2.92,-4.91 -0.71,-7.22 2.07,1.94 4.64,3.78 7.57,5.54 4.8,-1.17 9.62,-2.33 14.45,-3.42 -12.06,-4.76 -21.47,-10.89 -23.74,-22.41 -4.74,-27.25 29.36,-40.35 38.28,-25.6 4.82,9.07 -2.56,17.22 -5.75,17.53 -1.66,-10.15 -20.99,-8.29 -18.97,5.04 1.88,7.6 13.34,8.14 20.06,3.38 8.65,-4.66 14.4,-15.96 9.54,-26.73 11.52,9 -0.85,24.41 -7.49,29.15 -9.45,7.3 -3.78,20.8 8.55,10.54 7.97,-7.69 7.22,-22.4 7.06,-30.9 3.4,14.11 2.09,24.76 -5.04,32.89 -0.93,0.95 -1.61,1.9 -2.09,2.79 4.98,-0.99 9.97,-1.97 14.98,-2.86 2.29,-10.52 -1.6,-20.33 -3.7,-26.54 6.27,10.46 6.91,19.43 6.27,26.11 2.69,-0.47 5.41,-0.9 8.11,-1.34 -1.65,-6.73 -5.05,-13.88 -9.71,-18.97 5.29,3.78 8.75,11.27 11.95,18.59 2.53,-0.41 5.03,-0.86 7.56,-1.25 -6.33,-5.65 -13.61,-11.79 -17.2,-18.54 7.73,8.19 13.88,13.39 24.67,15.63 3.96,0.88 9.17,-0.5 9.51,-3.17 1.18,-9.12 -28.46,-6.17 -37.63,-18.51 7.61,6.12 19.87,9.49 29.16,8.23 10.37,-2.15 10.65,-11.26 -0.61,-10.06 -8.28,1.64 -23.85,1.72 -32.91,-4.99 8.29,4.57 19.26,5.13 28.53,2.66 14.59,-4.47 9.85,-16.73 -4.34,-10.76 -7.02,2.41 -15.96,7.02 -28.68,2.69 18.58,3.89 38.67,-7.54 29.23,-23.6 -5.31,-6.58 -18.13,-10.42 -30.21,-4.85 -9.98,5.1 -5.63,14.4 -2.36,16.63 12.71,8.79 28.5,-7.58 11.17,-11.11 6.72,-2.26 13.5,-1.06 16.31,5.86 1.76,10.75 -12.98,20.72 -33.56,9.98 -15.59,-10.08 -39.11,-4.82 -48.85,14.59 -6.34,-16.11 10.98,-14.25 14.53,-17.17 0.19,-4.04 -12.49,-4.56 -17.73,4.71 -3.23,-7 8.54,-15.4 -5.11,-19.2 -0.21,-0.08 -0.42,-0.19 -0.65,-0.3 0.04,0.15 0.07,0.3 0.1,0.45 -10.23,10.15 3,11.89 3.38,19.66 -8.27,-5.67 -20.02,1.33 -17.71,4.7 4.32,0.83 19.12,-9.57 19.68,8.08 -8.26,-6.37 -18.13,-7.67 -27.08,-5.34 -8.95,2.33 -17.3,8.31 -22.43,16.89 -14.89,20.16 -31.39,18.48 -33.99,7.99 -0.16,-7.65 5.51,-12.13 11.82,-13.34 -13.59,11.76 6.3,18.62 14.92,4.16 2.04,-3.63 2.33,-14.17 -8.55,-13.71 -13.01,1.06 -23.61,11.16 -25.25,19.59 -2.25,19.17 19.6,19.46 34.75,6.58 -9.1,10.16 -18.92,10.53 -26.18,11.92 -15.08,1.81 -14.54,15.17 -0.31,11.98 9.25,-2.46 19.51,-8.66 25.19,-16.94 -5.54,10.61 -20.18,18.56 -27.6,21.09 -10.59,4.58 -7.46,12.79 3.3,9.32 8.85,-3.56 18.55,-12.75 22.99,-22.09 -3.41,15.68 -31.15,27.98 -26.57,35.59 0.62,1.01 2.05,1.27 3.72,0.98 1.37,-0.53 2.74,-1.03 4.11,-1.56 0.69,-0.4 1.34,-0.86 1.93,-1.38 8.83,-7.45 12.26,-15.23 16.05,-26.47 -0.56,7.43 -4.3,16.03 -7.65,23.92 2.08,-0.77 4.18,-1.51 6.27,-2.26 -0.06,-7.8 0.16,-15.78 3.31,-21.59 -1.72,6.49 -2.21,14.22 -1.4,20.92 2.66,-0.95 5.34,-1.9 8.02,-2.82 -2.97,-5.64 -5.52,-13.84 -4.02,-25.79 0.49,6.44 0.79,16.78 6.42,24.94 4.76,-1.62 9.55,-3.17 14.34,-4.71 -0.63,-0.38 -1.36,-0.72 -2.22,-1 -9.59,-3.7 -15.5,-12.42 -17.32,-26.94 3.13,7.68 8.2,21.25 17.68,24.3 15.68,2.85 15.56,-12.16 4.24,-13.94 -7.77,-0.91 -24.85,-8.48 -18.62,-22.19 0.44,11.94 9.94,19.17 19.54,18.97 7.84,0.89 17.93,-5.35 16.66,-13.14 -3.35,-12.98 -21.43,-4.9 -18.97,5.05 -3.61,1.53 -12.76,-2.25 -11.95,-12.82 2.32,-17.73 37.94,-23.16 44.28,3.66 2.38,11.3 -3.47,21.39 -12.22,31.59 4.65,-1.35 9.31,-2.64 13.99,-3.92zm210.72 -28.44c2.69,-2.48 5.01,-4.91 6.8,-7.31 2.57,1.7 1.55,4.44 0.19,7.31 2.21,0.02 4.42,0.06 6.63,0.09 -0.99,-2.9 -1.71,-5.68 1.1,-7.39 1.52,2.45 3.59,4.95 6.03,7.48 5,0.11 9.98,0.28 14.96,0.48 -10.56,-7.78 -18.19,-16.17 -17.41,-27.99 2.48,-27.55 38.8,-31.37 43.6,-14.83 2.3,10.01 -6.93,15.97 -10.09,15.44 1.02,-10.23 -18.13,-13.44 -19.63,-0.04 -0.16,7.83 10.78,11.31 18.49,8.46 9.56,-2.27 18.05,-11.69 16.14,-23.35 8.79,11.68 -7.14,23.37 -14.78,26.22 -11.02,4.61 -9.04,19.12 5.52,12.4 9.69,-5.36 12.78,-19.76 14.82,-28.02 -0.36,14.51 -4.39,24.46 -13.38,30.47 -1.21,0.73 -2.16,1.51 -2.87,2.3 5.1,0.33 10.19,0.68 15.27,1.11 5.02,-9.61 3.8,-20.16 3.37,-26.73 3.36,11.79 1.62,20.67 -0.76,26.96 2.74,0.24 5.49,0.47 8.24,0.73 0.15,-6.94 -1.28,-14.75 -4.47,-20.88 4.13,5.03 5.53,13.18 6.73,21.08 2.57,0.25 5.13,0.54 7.69,0.83 -4.67,-7.13 -10.15,-14.99 -11.88,-22.47 5.34,9.91 9.93,16.53 19.77,21.48 3.61,1.88 9,1.89 10.02,-0.59 3.5,-8.5 -25.89,-13.33 -31.56,-27.62 5.77,7.89 16.74,14.32 26.05,15.5 10.56,0.61 13.2,-8.11 2.01,-9.87 -8.42,-0.56 -23.48,-4.52 -30.5,-13.33 6.83,6.55 17.28,9.93 26.87,9.95 15.25,-0.54 13.84,-13.61 -1.41,-11.52 -7.4,0.51 -17.23,2.65 -28.39,-4.82 16.94,8.56 39.3,2.72 34.34,-15.24 -3.42,-7.74 -14.82,-14.76 -27.93,-12.51 -10.95,2.35 -9.16,12.46 -6.58,15.45 10,11.79 29.5,0.06 13.67,-7.84 7.07,-0.44 13.32,2.47 14.24,9.88 -1.09,10.84 -17.9,16.66 -35,0.96 -12.46,-13.78 -36.53,-14.78 -50.96,1.45 -1.95,-17.21 14.29,-10.92 18.48,-12.83 1.23,-3.84 -10.88,-7.63 -18.34,-0.03 -1.3,-7.6 12.24,-12.66 0.03,-19.87 -0.18,-0.13 -0.36,-0.3 -0.54,-0.45 -0.01,0.16 -0.02,0.32 -0.03,0.45 -12.51,7.16 -0.17,12.27 -1.82,19.86 -6.53,-7.6 -19.68,-3.9 -18.33,-0.03 3.95,1.92 20.94,-4.29 16.92,12.9 -6.33,-8.29 -15.53,-12.1 -24.78,-12.17 -9.25,-0.06 -18.87,3.54 -26.04,10.51 -19.6,15.62 -35.1,9.74 -34.89,-1.07 1.82,-7.43 8.45,-10.3 14.88,-9.82 -16.17,7.83 1.26,19.61 13.33,7.87 2.91,-2.98 5.93,-13.08 -4.7,-15.45 -12.84,-2.35 -25.69,4.67 -29.45,12.4 -7.14,17.94 13.89,23.86 31.86,15.35 -11.41,7.45 -21,5.27 -28.38,4.73 -15.03,-2.15 -17.96,10.89 -3.39,11.49 9.56,0.02 21.08,-3.31 28.7,-9.84 -8.08,8.81 -24.29,12.69 -32.11,13.23 -11.41,1.69 -10.52,10.43 0.78,9.86 9.47,-1.14 21.22,-7.51 27.92,-15.38 -7.35,14.26 -37.33,18.97 -34.87,27.51 0.42,1.4 2.32,2.01 4.58,1.95l2.1 -0.25c1.11,-0.22 2.25,-0.58 3.26,-1.08 10.46,-4.9 15.79,-11.53 22.35,-21.42 -2.5,7.12 -8.43,14.54 -13.76,21.37 2.26,-0.21 4.51,-0.42 6.78,-0.6 1.97,-7.62 4.25,-15.35 8.82,-20.18 -3.36,5.86 -5.85,13.28 -6.79,20.01 2.85,-0.23 5.69,-0.43 8.55,-0.62 -1.44,-6.24 -1.85,-14.87 2.74,-26.15 -1.2,6.4 -3.61,16.58 -0.17,25.98 5.05,-0.33 10.09,-0.66 15.16,-0.91 -0.53,-0.58 -1.21,-1.15 -2.04,-1.7 -8.3,-6.06 -11.76,-16.01 -9.75,-30.51 1.04,8.24 2.42,22.65 10.79,28.05 14.41,6.81 18.17,-7.71 7.69,-12.37 -7.27,-2.89 -21.81,-14.62 -12.24,-26.25 -2.66,11.65 4.64,21.09 13.97,23.38 7.34,2.88 18.7,-0.53 19.49,-8.38 0.11,-13.41 -19.43,-10.28 -19.64,-0.04 -3.88,0.53 -11.74,-5.48 -8.21,-15.48 6.82,-16.52 42.63,-12.55 41.81,15 -0.63,11.64 -9.03,19.91 -20.26,27.55 4.86,-0.1 9.74,-0.16 14.62,-0.19zm211.34 26.77c3.14,-1.66 5.92,-3.37 8.21,-5.18 2.01,2.27 0.42,4.6 -1.58,6.97 2.07,0.56 4.16,1.1 6.23,1.69 -0.17,-2.97 -0.07,-5.7 3,-6.59 0.82,2.69 2.13,5.55 3.76,8.53 4.74,1.38 9.47,2.77 14.17,4.22 -8.02,-10.12 -13.05,-20.1 -9.28,-31.18 9.52,-25.97 45.6,-20.27 45.95,-3.04 -0.36,10.28 -10.83,13.64 -13.75,12.31 3.64,-9.63 -14.02,-17.68 -18.95,-5.12 -2.18,7.52 7.48,13.71 15.68,12.95 9.82,0.3 20.45,-6.61 21.62,-18.36 5.49,13.55 -12.94,20.72 -21.06,21.5 -11.83,1.6 -13.67,16.12 2.13,13.4 10.75,-2.67 17.46,-15.79 21.56,-23.23 -4.1,13.92 -10.57,22.49 -20.8,25.97 -1.23,0.35 -2.24,0.79 -3.09,1.3 4.81,1.63 9.57,3.34 14.32,5.04 7.22,-7.95 8.76,-18.37 10.03,-24.79 0.19,12.14 -3.69,20.21 -7.57,25.66 2.57,0.94 5.12,1.91 7.68,2.87 1.91,-6.64 2.53,-14.48 1.04,-21.18 2.67,5.9 1.94,14.08 1.06,21.98 2.38,0.9 4.77,1.78 7.13,2.71 -2.65,-8.04 -5.86,-16.96 -5.6,-24.58 2.59,10.95 5.31,18.54 13.54,25.87 3,2.74 8.2,4.15 9.82,2.02 5.59,-7.31 -21.57,-19.58 -23.34,-34.85 3.53,9.11 12.46,18.17 21.14,21.71 10.05,3.33 14.86,-4.41 4.5,-9.01 -7.99,-2.73 -21.52,-10.44 -26,-20.78 4.9,8.11 14.11,14.07 23.37,16.57 14.87,3.43 16.89,-9.56 1.63,-11.5 -7.29,-1.43 -17.33,-1.9 -26.18,-12.01 14.15,12.67 37.26,12.81 37.11,-5.83 -1.29,-8.35 -10.49,-18.09 -23.73,-19.3 -11.19,-0.57 -12.08,9.65 -10.35,13.21 6.61,13.97 28.47,7.69 15.23,-4.04 6.95,1.41 12.22,5.83 11.2,13.23 -3.86,10.18 -21.61,11.45 -34.05,-8.13 -8.47,-16.54 -31.46,-23.74 -49.6,-11.8 2.56,-17.12 16.63,-6.84 21.17,-7.6 2.18,-3.4 -8.54,-10.19 -17.71,-4.78 0.71,-7.68 15.1,-9.06 5.17,-19.18 -0.14,-0.18 -0.28,-0.38 -0.41,-0.58 -0.04,0.15 -0.1,0.3 -0.14,0.43 -13.93,3.68 -3.35,11.81 -6.9,18.71 -4.33,-9.04 -18.01,-8.86 -17.7,-4.78 3.33,2.88 21.34,1.27 13.01,16.83 -3.97,-9.65 -11.87,-15.7 -20.79,-18.16 -8.92,-2.46 -19.14,-1.46 -27.87,3.41 -22.97,10.02 -36.42,0.31 -33.42,-10.07 3.69,-6.71 10.83,-7.75 16.91,-5.64 -17.64,3.39 -3.86,19.27 10.84,11.06 3.59,-2.13 9.11,-11.1 -0.54,-16.14 -11.8,-5.6 -26.03,-2.14 -31.66,4.35 -11.54,15.47 7.25,26.64 26.81,23.06 -12.95,4.25 -21.64,-0.33 -28.63,-2.76 -13.96,-5.98 -20.17,5.86 -6.26,10.21 9.25,2.5 21.23,2.26 30.28,-2.07 -10.09,6.42 -26.75,5.98 -34.43,4.47 -11.47,-1.32 -12.87,7.35 -1.81,9.72 9.45,1.35 22.44,-1.76 30.96,-7.63 -10.8,11.88 -40.97,8.66 -40.81,17.54 0.04,1.3 1.37,2.3 3.2,2.88 1.12,0.17 2.23,0.36 3.34,0.54 0.97,0.03 1.96,-0.04 2.89,-0.23 11.38,-2.03 18.23,-7.04 27.13,-14.89 -4.24,6.19 -11.84,11.8 -18.72,17 2.22,0.38 4.46,0.72 6.67,1.12 3.86,-6.81 8.05,-13.62 13.68,-17.09 -4.73,4.77 -9.04,11.25 -11.7,17.47 2.8,0.51 5.58,1.07 8.38,1.61 0.24,-6.39 2.1,-14.79 9.42,-24.45 -2.79,5.85 -7.74,15 -6.9,24.93 4.96,0.97 9.89,1.98 14.82,3.05 -0.37,-0.66 -0.85,-1.35 -1.47,-2.04 -6.44,-8.01 -7.21,-18.51 -1.52,-32 -1.13,8.22 -3.52,22.5 3.17,29.88 12.15,10.3 19.55,-2.75 10.64,-9.95 -6.28,-4.67 -17.29,-19.77 -5.03,-28.52 -5.58,10.56 -0.97,21.56 7.44,26.2 6.35,4.69 18.2,4.33 21,-3.04 3.58,-12.93 -16.11,-14.96 -18.95,-5.12 -3.89,-0.48 -9.93,-8.33 -3.94,-17.09 10.87,-14.19 44.44,-1.09 36.51,25.31 -3.6,11 -13.73,16.82 -26.44,21.28 4.73,1.15 9.45,2.33 14.15,3.57zm196.92 80.69c3.47,-0.79 6.62,-1.72 9.32,-2.88 1.36,2.72 -0.83,4.57 -3.4,6.35 1.88,1.1 3.75,2.21 5.62,3.32 0.6,-2.94 1.38,-5.64 4.62,-5.7 0.09,2.83 0.62,5.95 1.43,9.28 4.27,2.59 8.48,5.25 12.69,7.91 -5.19,-11.95 -7.55,-22.97 -1,-32.76 15.92,-22.61 49.29,-7.77 45.18,8.96 -3.01,9.83 -13.99,10.37 -16.47,8.32 6,-8.35 -8.96,-20.71 -16.98,-9.85 -4.04,6.7 3.68,15.19 11.79,16.57 9.42,2.82 21.48,-1.09 25.65,-12.14 1.78,14.51 -17.87,16.66 -25.91,15.31 -11.85,-1.52 -17.38,12.04 -1.41,13.5 11.08,0.21 20.95,-10.72 26.85,-16.85 -7.57,12.38 -16.04,18.98 -26.82,19.7 -1.37,0.01 -2.54,0.21 -3.53,0.52 4.23,2.83 8.42,5.71 12.59,8.61 9.14,-5.8 13.35,-15.54 16.25,-21.44 -2.97,11.87 -8.9,18.69 -14.1,22.94 2.25,1.58 4.51,3.15 6.75,4.75 3.6,-5.93 6.26,-13.4 6.55,-20.3 1.06,6.43 -1.81,14.19 -4.72,21.65 2.1,1.5 4.18,3.03 6.26,4.56 -0.48,-8.51 -1.31,-18.07 0.94,-25.42 -0.33,11.25 0.33,19.28 6.39,28.48 2.19,3.43 6.85,6.13 8.96,4.49 7.29,-5.6 -15.76,-24.48 -13.52,-39.69 1.06,9.71 7.34,20.76 14.8,26.44 8.84,5.81 15.5,-0.43 6.68,-7.54 -7.01,-4.7 -18.08,-15.65 -19.75,-26.79 2.64,9.1 10,17.23 18.29,22.05 13.49,7.16 18.8,-4.86 4.55,-10.68 -6.67,-3.26 -16.25,-6.32 -22.18,-18.38 10.39,15.89 32.68,22.01 37.35,3.98 0.91,-8.41 -5.45,-20.19 -17.93,-24.79 -10.67,-3.44 -14.17,6.21 -13.42,10.09 2.76,15.21 25.51,14.8 15.76,0.04 6.34,3.15 10.29,8.79 7.39,15.67 -6.36,8.84 -23.83,5.47 -30.78,-16.67 -3.9,-18.16 -24.24,-31.07 -44.86,-24.23 6.9,-15.88 17.84,-2.31 22.42,-1.87 2.99,-2.71 -5.6,-12.06 -15.87,-9.2 2.67,-7.22 16.92,-4.84 9.96,-17.19 -0.09,-0.2 -0.16,-0.43 -0.24,-0.66 -0.08,0.13 -0.18,0.27 -0.25,0.39 -14.4,-0.06 -6.28,10.53 -11.51,16.28 -1.84,-9.85 -15.09,-13.22 -15.85,-9.2 2.47,3.65 20.29,6.76 8.2,19.63 -1.34,-10.34 -7.39,-18.24 -15.38,-22.92 -7.97,-4.67 -18.1,-6.36 -27.8,-3.92 -24.79,3.73 -35.27,-9.12 -29.68,-18.38 5.3,-5.52 12.47,-4.68 17.8,-1.06 -17.93,-1.3 -8.72,17.61 7.6,13.47 4.01,-1.12 11.68,-8.36 3.65,-15.73 -9.94,-8.47 -24.59,-8.8 -31.7,-4 -15.16,11.97 0.1,27.61 19.92,29.22 -13.61,0.75 -20.82,-5.93 -26.94,-10.09 -11.94,-9.38 -21,0.45 -8.69,8.25 8.28,4.8 19.92,7.68 29.78,5.83 -11.4,3.59 -27.38,-1.15 -34.42,-4.6 -10.73,-4.24 -14.32,3.77 -4.25,8.93 8.77,3.75 22.13,4.11 31.87,0.64 -13.5,8.67 -41.81,-2.24 -43.95,6.38 -0.3,1.21 0.63,2.47 2.14,3.48 1.26,0.55 2.51,1.09 3.76,1.64 0.79,0.21 1.59,0.34 2.38,0.4 11.52,0.98 19.44,-2.1 30.07,-7.37 -5.68,4.87 -14.43,8.32 -22.4,11.54 2.03,0.94 4.05,1.88 6.07,2.83 5.49,-5.57 11.3,-11.07 17.63,-12.96 -5.8,3.38 -11.62,8.51 -15.79,13.81 2.56,1.22 5.12,2.45 7.67,3.69 1.89,-6.09 5.87,-13.71 15.41,-21.11 -4.22,4.92 -11.35,12.46 -13.12,22.25 4.53,2.22 9.03,4.45 13.5,6.76 -0.18,-0.71 -0.46,-1.48 -0.88,-2.29 -4.15,-9.4 -2.17,-19.74 6.82,-31.3 -3.22,7.65 -9.23,20.83 -4.67,29.69 9.07,13.09 19.59,2.39 12.85,-6.87 -4.86,-6.14 -11.59,-23.57 2.52,-28.86 -8.13,8.76 -6.53,20.58 0.41,27.24 4.91,6.17 16.46,8.89 21.07,2.49 6.81,-11.56 -11.69,-18.62 -16.98,-9.85 -3.63,-1.48 -7.43,-10.61 0.62,-17.52 14.18,-10.9 43.2,10.46 28.72,33.9 -6.32,9.69 -17.63,12.69 -31.07,13.71 4.26,2.34 8.52,4.7 12.73,7.11zm5.6 1412.11c-1.06,3.43 -1.84,6.64 -2.18,9.58 -3.03,-0.19 -3.55,-2.97 -3.81,-6.08 -1.88,1.08 -3.79,2.11 -5.68,3.17 2.26,1.99 4.18,4.01 2.62,6.85 -2.5,-1.34 -5.48,-2.45 -8.78,-3.4 -4.35,2.39 -8.72,4.74 -13.11,7.05 12.92,1.47 23.61,4.95 28.81,15.5 11.62,25.09 -17.93,46.57 -30.35,34.64 -7.01,-7.51 -1.99,-17.29 1.02,-18.42 4.23,9.37 22.42,2.59 17.02,-9.78 -3.78,-6.85 -15,-4.41 -20.25,1.92 -7.15,6.74 -9.79,19.15 -2.3,28.29 -13.46,-5.71 -5.5,-23.8 -0.31,-30.1 7.24,-9.5 -1.74,-21.07 -10.98,-7.97 -5.72,9.49 -1.19,23.51 1.17,31.68 -6.94,-12.75 -8.43,-23.38 -3.65,-33.07 0.65,-1.17 1.06,-2.24 1.28,-3.24 -4.55,2.25 -9.12,4.47 -13.72,6.64 0.5,10.76 6.79,19.23 10.44,24.68 -8.76,-8.47 -11.7,-16.97 -12.81,-23.57 -2.47,1.16 -4.95,2.33 -7.44,3.47 3.34,6.05 8.44,12.03 14.24,15.72 -6.05,-2.27 -11.31,-8.57 -16.27,-14.77 -2.33,1.06 -4.7,2.04 -7.04,3.08 7.57,3.82 16.18,7.86 21.39,13.44 -9.58,-5.91 -16.86,-9.35 -27.86,-8.71 -4.06,0.18 -8.73,2.86 -8.37,5.52 1.21,9.11 29.08,-1.41 41.14,8.14 -8.93,-3.95 -21.65,-4.03 -30.3,-0.4 -9.46,4.75 -7.38,13.63 3.19,9.56 7.57,-3.72 22.59,-7.83 33.08,-3.7 -9.19,-2.27 -19.93,0.04 -28.24,4.82 -12.95,8.09 -5.19,18.71 6.97,9.28 6.17,-4.15 13.59,-10.92 27.01,-10.03 -18.96,1.06 -35.41,17.29 -22.12,30.36 6.83,5 20.22,5.38 30.44,-3.13 8.32,-7.51 1.71,-15.37 -2.04,-16.66 -14.55,-5.21 -25.57,14.69 -7.91,13.62 -5.9,3.92 -12.76,4.52 -17.27,-1.44 -4.47,-9.92 7.18,-23.37 29.83,-18.32 17.67,5.7 39.03,-5.46 43.41,-26.74 10.29,13.92 -6.91,16.6 -9.59,20.35 0.85,3.95 13.24,1.17 15.91,-9.14 4.92,5.93 -4.27,17.08 9.91,17.22 0.22,0.03 0.45,0.07 0.7,0.13 -0.07,-0.15 -0.15,-0.29 -0.21,-0.42 7.25,-12.45 -5.98,-10.7 -8.35,-18.1 9.45,3.32 18.99,-6.47 15.89,-9.13 -4.39,0.31 -15.99,14.19 -21.11,-2.71 9.63,4.01 19.49,2.71 27.54,-1.87 8.04,-4.56 14.57,-12.49 17.29,-22.12 9.16,-23.33 25.53,-25.98 30.76,-16.51 2.13,7.35 -2.18,13.14 -7.97,15.95 10.08,-14.87 -10.9,-16.37 -15.48,-0.16 -1.03,4.04 1.4,14.29 11.79,11.03 12.3,-4.38 19.92,-16.89 19.32,-25.46 -2.78,-19.1 -23.96,-13.72 -35.27,2.64 6.15,-12.16 15.54,-15.06 22.21,-18.28 14.09,-5.65 10.11,-18.41 -2.8,-11.65 -8.3,4.77 -16.6,13.42 -19.94,22.88 2.59,-11.67 14.69,-23.14 21.19,-27.51 9.05,-7.16 3.9,-14.29 -5.6,-8.15 -7.63,5.72 -14.62,17.11 -16.48,27.28 -0.77,-16.03 22.85,-35.1 16.45,-41.26 -1.14,-1.09 -3.33,-0.51 -5.4,0.9l-0.16 0.11 -0.32 0.23 -0.15 0.12c-1.1,0.84 -2.12,1.91 -2.89,3.05 -6.61,9.48 -7.91,17.88 -8.66,29.72 -1.38,-7.39 0.04,-16.75 1.23,-25.31 -1.84,1.3 -3.7,2.56 -5.55,3.84 2.1,7.58 3.98,15.42 2.45,21.89 -0.02,-6.76 -1.58,-14.43 -4.12,-20.73 -2.35,1.62 -4.67,3.28 -7.04,4.88 4.36,4.69 8.99,11.95 10.64,23.96 -2.16,-6.12 -5.14,-16.1 -12.78,-22.53 -4.19,2.82 -8.41,5.6 -12.66,8.34 0.74,0.22 1.58,0.36 2.53,0.42 10.22,1.1 18.19,7.99 23.7,21.55 -5.02,-6.61 -13.42,-18.4 -23.38,-18.89 -15.88,1.32 -11.88,15.77 -0.47,14.56 7.74,-1.13 26.2,1.75 23.72,16.62 -3.52,-11.42 -14.56,-15.94 -23.78,-13.27 -7.8,1.17 -15.93,9.8 -12.69,17 6.6,11.67 21.96,-0.81 17.01,-9.78 3.1,-2.41 12.91,-1.13 14.86,9.3 2.35,17.72 -30.65,32.18 -43.72,7.91 -5.24,-10.33 -2.18,-21.62 3.66,-33.77 -4.14,2.52 -8.32,4.96 -12.51,7.41zm-196.34 82.3c-1.9,3.01 -3.46,5.89 -4.55,8.62 -2.86,-0.96 -2.66,-3.77 -2.11,-6.82 -2.08,0.55 -4.16,1.09 -6.25,1.63 1.63,2.48 2.93,4.91 0.71,7.22 -2.07,-1.94 -4.64,-3.77 -7.58,-5.54 -4.81,1.17 -9.62,2.33 -14.46,3.42 12.07,4.76 21.49,10.89 23.77,22.42 4.73,27.25 -29.37,40.34 -38.29,25.6 -4.82,-9.07 2.56,-17.22 5.76,-17.53 1.66,10.15 20.99,8.29 18.97,-5.04 -1.87,-7.6 -13.34,-8.14 -20.05,-3.38 -8.65,4.66 -14.41,15.96 -9.54,26.73 -11.52,-9 0.85,-24.42 7.49,-29.16 9.45,-7.3 3.77,-20.8 -8.55,-10.55 -7.97,7.69 -7.22,22.41 -7.06,30.91 -3.4,-14.11 -2.08,-24.77 5.04,-32.89 0.94,-0.96 1.61,-1.9 2.1,-2.8 -4.98,1 -9.97,1.97 -14.98,2.87 -2.3,10.53 1.58,20.34 3.69,26.55 -6.27,-10.46 -6.92,-19.44 -6.27,-26.12 -2.7,0.47 -5.41,0.89 -8.12,1.34 1.65,6.74 5.05,13.89 9.71,18.98 -5.29,-3.78 -8.75,-11.29 -11.96,-18.6 -2.52,0.41 -5.03,0.86 -7.56,1.25 6.33,5.66 13.62,11.8 17.21,18.55 -7.72,-8.18 -13.87,-13.39 -24.66,-15.62 -3.96,-0.88 -9.18,0.51 -9.51,3.17 -1.19,9.12 28.46,6.17 37.63,18.51 -7.61,-6.12 -19.87,-9.49 -29.16,-8.23 -10.37,2.14 -10.66,11.26 0.6,10.05 8.29,-1.63 23.85,-1.71 32.91,4.99 -8.3,-4.56 -19.26,-5.12 -28.53,-2.65 -14.6,4.47 -9.85,16.72 4.34,10.76 7.02,-2.41 15.95,-7.03 28.67,-2.69 -18.58,-3.89 -38.67,7.54 -29.22,23.6 5.3,6.59 18.13,10.43 30.21,4.86 9.98,-5.11 5.63,-14.4 2.36,-16.63 -12.72,-8.8 -28.51,7.58 -11.17,11.11 -6.72,2.25 -13.5,1.06 -16.31,-5.86 -1.75,-10.74 12.98,-20.72 33.56,-9.97 15.6,10.08 39.12,4.82 48.85,-14.59 6.35,16.11 -10.98,14.24 -14.52,17.17 -0.2,4.04 12.49,4.56 17.72,-4.71 3.22,7 -8.55,15.39 5.11,19.2 0.22,0.08 0.43,0.19 0.65,0.3 -0.03,-0.16 -0.06,-0.31 -0.09,-0.45 10.23,-10.15 -3.01,-11.9 -3.37,-19.66 8.26,5.66 20.01,-1.33 17.7,-4.7 -4.31,-0.83 -19.12,9.56 -19.67,-8.08 8.26,6.37 18.13,7.66 27.08,5.34 8.96,-2.33 17.31,-8.31 22.44,-16.89 14.89,-20.17 31.39,-18.48 33.98,-7.99 0.16,7.65 -5.5,12.13 -11.82,13.33 13.59,-11.75 -6.29,-18.62 -14.92,-4.15 -2.04,3.63 -2.34,14.17 8.54,13.7 13.02,-1.06 23.61,-11.16 25.25,-19.6 2.26,-19.17 -19.59,-19.45 -34.75,-6.57 9.09,-10.16 18.91,-10.53 26.18,-11.92 15.07,-1.81 14.53,-15.16 0.31,-11.97 -9.25,2.46 -19.52,8.66 -25.19,16.94 5.53,-10.61 20.17,-18.56 27.59,-21.09 10.59,-4.59 7.47,-12.79 -3.3,-9.32 -8.84,3.56 -18.55,12.75 -22.98,22.09 3.4,-15.68 31.14,-27.98 26.57,-35.59 -0.63,-1.03 -2.1,-1.28 -3.8,-0.97 -1.32,0.51 -2.64,1 -3.97,1.51 -0.71,0.41 -1.4,0.89 -2,1.42 -8.84,7.45 -12.26,15.22 -16.05,26.47 0.56,-7.44 4.3,-16.04 7.65,-23.94 -2.08,0.76 -4.18,1.51 -6.28,2.26 0.06,7.81 -0.16,15.79 -3.3,21.61 1.72,-6.5 2.21,-14.24 1.41,-20.94 -2.67,0.95 -5.34,1.9 -8.03,2.82 2.97,5.65 5.54,13.85 4.03,25.8 -0.5,-6.44 -0.79,-16.79 -6.43,-24.96 -4.77,1.63 -9.56,3.18 -14.36,4.72 0.64,0.38 1.38,0.72 2.24,1 9.59,3.7 15.5,12.43 17.31,26.95 -3.13,-7.68 -8.2,-21.26 -17.68,-24.3 -15.68,-2.84 -15.56,12.16 -4.23,13.94 7.77,0.91 24.85,8.47 18.62,22.18 -0.45,-11.93 -9.94,-19.16 -19.55,-18.97 -7.84,-0.89 -17.93,5.35 -16.66,13.13 3.35,12.99 21.43,4.9 18.97,-5.04 3.61,-1.53 12.76,2.25 11.94,12.82 -2.32,17.73 -37.94,23.16 -44.27,-3.66 -2.38,-11.3 3.47,-21.4 12.23,-31.6 -4.65,1.35 -9.31,2.65 -13.99,3.92zm-210.73 28.44c-2.69,2.48 -5.02,4.92 -6.81,7.33 -2.58,-1.71 -1.55,-4.45 -0.19,-7.33 -2.22,-0.01 -4.42,-0.06 -6.63,-0.09 0.98,2.91 1.72,5.69 -1.1,7.4 -1.53,-2.46 -3.61,-4.96 -6.05,-7.49 -5,-0.1 -9.99,-0.27 -14.97,-0.48 10.57,7.79 18.22,16.18 17.43,28 -2.48,27.54 -38.8,31.37 -43.6,14.83 -2.31,-10.02 6.93,-15.98 10.09,-15.44 -1.03,10.24 18.12,13.45 19.63,0.04 0.16,-7.83 -10.79,-11.31 -18.5,-8.46 -9.56,2.26 -18.05,11.68 -16.14,23.35 -8.8,-11.67 7.14,-23.36 14.78,-26.22 11.01,-4.61 9.03,-19.11 -5.52,-12.4 -9.7,5.37 -12.78,19.78 -14.83,28.03 0.36,-14.51 4.39,-24.47 13.38,-30.47 1.22,-0.73 2.17,-1.51 2.88,-2.3 -5.1,-0.33 -10.2,-0.68 -15.27,-1.1 -5.03,9.6 -3.81,20.16 -3.38,26.73 -3.37,-11.8 -1.62,-20.68 0.76,-26.96 -2.75,-0.24 -5.49,-0.47 -8.24,-0.74 -0.16,6.95 1.27,14.75 4.47,20.9 -4.13,-5.04 -5.54,-13.19 -6.73,-21.1 -2.57,-0.25 -5.13,-0.54 -7.69,-0.82 4.66,7.14 10.15,14.99 11.89,22.48 -5.34,-9.91 -9.93,-16.53 -19.78,-21.48 -3.61,-1.87 -9,-1.89 -10.01,0.6 -3.51,8.5 25.89,13.33 31.56,27.62 -5.76,-7.88 -16.74,-14.31 -26.04,-15.49 -10.56,-0.62 -13.21,8.11 -2.01,9.86 8.42,0.57 23.48,4.52 30.5,13.34 -6.83,-6.55 -17.27,-9.94 -26.87,-9.95 -15.25,0.53 -13.84,13.61 1.41,11.52 7.41,-0.51 17.23,-2.66 28.4,4.82 -16.95,-8.57 -39.3,-2.73 -34.34,15.24 3.42,7.74 14.81,14.76 27.92,12.51 10.96,-2.35 9.16,-12.46 6.58,-15.45 -10,-11.79 -29.5,-0.06 -13.67,7.84 -7.07,0.44 -13.32,-2.47 -14.24,-9.89 1.09,-10.83 17.91,-16.66 35,-0.95 12.46,13.78 36.53,14.78 50.97,-1.45 1.95,17.2 -14.29,10.92 -18.48,12.83 -1.24,3.85 10.88,7.64 18.34,0.04 1.29,7.6 -12.24,12.66 -0.03,19.87 0.18,0.14 0.36,0.29 0.54,0.45 0.01,-0.16 0.02,-0.32 0.03,-0.45 12.51,-7.16 0.17,-12.27 1.83,-19.87 6.52,7.61 19.68,3.89 18.32,0.04 -3.95,-1.92 -20.94,4.29 -16.92,-12.9 6.33,8.29 15.53,12.09 24.78,12.16 9.25,0.06 18.87,-3.54 26.04,-10.51 19.6,-15.62 35.1,-9.74 34.89,1.08 -1.82,7.43 -8.45,10.29 -14.87,9.82 16.17,-7.84 -1.26,-19.62 -13.33,-7.87 -2.91,2.98 -5.93,13.08 4.7,15.45 12.84,2.36 25.69,-4.67 29.46,-12.39 7.14,-17.93 -13.9,-23.86 -31.86,-15.35 11.41,-7.45 20.99,-5.27 28.37,-4.73 15.04,2.15 17.97,-10.89 3.4,-11.49 -9.57,-0.02 -21.09,3.31 -28.7,9.84 8.08,-8.81 24.28,-12.7 32.1,-13.23 11.42,-1.69 10.52,-10.43 -0.78,-9.86 -9.46,1.14 -21.21,7.51 -27.91,15.38 7.35,-14.26 37.33,-18.98 34.88,-27.51 -0.42,-1.43 -2.41,-2.04 -4.74,-1.95l-1.79 0.21c-1.17,0.22 -2.36,0.59 -3.41,1.11 -10.46,4.91 -15.79,11.53 -22.36,21.41 2.5,-7.12 8.44,-14.54 13.77,-21.37 -2.26,0.2 -4.51,0.41 -6.78,0.6 -1.98,7.62 -4.25,15.36 -8.83,20.2 3.37,-5.87 5.86,-13.3 6.8,-20.01 -2.85,0.22 -5.7,0.42 -8.55,0.63 1.44,6.23 1.86,14.87 -2.74,26.15 1.2,-6.41 3.62,-16.58 0.17,-26 -5.05,0.34 -10.09,0.66 -15.17,0.91 0.54,0.59 1.22,1.17 2.06,1.72 8.3,6.05 11.76,16 9.75,30.5 -1.04,-8.23 -2.42,-22.65 -10.8,-28.05 -14.4,-6.8 -18.17,7.72 -7.69,12.37 7.27,2.9 21.81,14.62 12.24,26.26 2.66,-11.65 -4.64,-21.08 -13.96,-23.38 -7.34,-2.89 -18.7,0.53 -19.5,8.38 -0.11,13.41 19.43,10.28 19.64,0.04 3.89,-0.54 11.74,5.48 8.22,15.48 -6.82,16.52 -42.64,12.55 -41.82,-15.01 0.64,-11.64 9.05,-19.92 20.28,-27.56 -4.86,0.1 -9.74,0.16 -14.63,0.19zm-211.34 -26.76c-3.14,1.66 -5.92,3.37 -8.23,5.18 -2.01,-2.26 -0.41,-4.6 1.59,-6.97 -2.07,-0.56 -4.17,-1.1 -6.24,-1.69 0.18,2.97 0.08,5.7 -2.99,6.6 -0.83,-2.7 -2.13,-5.56 -3.77,-8.55 -4.73,-1.38 -9.47,-2.76 -14.17,-4.21 8.02,10.12 13.06,20.1 9.28,31.19 -9.53,25.97 -45.6,20.26 -45.96,3.03 0.36,-10.27 10.84,-13.63 13.75,-12.3 -3.64,9.63 14.03,17.68 18.95,5.12 2.18,-7.51 -7.48,-13.71 -15.68,-12.95 -9.82,-0.29 -20.45,6.62 -21.63,18.37 -5.48,-13.55 12.94,-20.72 21.06,-21.5 11.83,-1.6 13.68,-16.13 -2.12,-13.4 -10.76,2.67 -17.46,15.79 -21.57,23.23 4.1,-13.92 10.58,-22.5 20.81,-25.97 1.23,-0.36 2.25,-0.8 3.09,-1.31 -4.8,-1.63 -9.56,-3.34 -14.32,-5.05 -7.22,7.96 -8.76,18.38 -10.04,24.8 -0.19,-12.14 3.7,-20.22 7.58,-25.66 -2.57,-0.94 -5.12,-1.91 -7.68,-2.88 -1.92,6.64 -2.53,14.48 -1.04,21.19 -2.68,-5.89 -1.94,-14.08 -1.06,-21.98 -2.38,-0.91 -4.76,-1.79 -7.14,-2.71 2.65,8.05 5.86,16.97 5.6,24.59 -2.6,-10.96 -5.31,-18.54 -13.55,-25.87 -3,-2.74 -8.2,-4.15 -9.82,-2.01 -5.59,7.31 21.56,19.58 23.34,34.84 -3.54,-9.1 -12.47,-18.16 -21.15,-21.7 -10.04,-3.33 -14.86,4.42 -4.5,9.01 7.99,2.73 21.52,10.44 26,20.78 -4.89,-8.11 -14.11,-14.07 -23.37,-16.57 -14.88,-3.43 -16.9,9.56 -1.63,11.49 7.29,1.43 17.33,1.9 26.18,12.01 -14.15,-12.66 -37.26,-12.8 -37.11,5.83 1.3,8.36 10.49,18.1 23.74,19.31 11.19,0.57 12.08,-9.66 10.35,-13.21 -6.61,-13.98 -28.47,-7.69 -15.22,4.03 -6.95,-1.4 -12.23,-5.83 -11.2,-13.23 3.86,-10.17 21.6,-11.45 34.05,8.14 8.47,16.54 31.46,23.74 49.61,11.79 -2.56,17.12 -16.63,6.85 -21.17,7.61 -2.19,3.39 8.53,10.19 17.71,4.78 -0.71,7.67 -15.1,9.06 -5.18,19.18 0.14,0.17 0.28,0.37 0.41,0.57 0.04,-0.14 0.1,-0.3 0.15,-0.42 13.94,-3.68 3.35,-11.81 6.9,-18.71 4.33,9.04 18.01,8.86 17.7,4.78 -3.32,-2.88 -21.34,-1.28 -13.01,-16.83 3.97,9.65 11.87,15.7 20.79,18.16 8.92,2.45 19.15,1.46 27.88,-3.41 22.97,-10.03 36.42,-0.32 33.42,10.07 -3.69,6.71 -10.84,7.75 -16.91,5.63 17.64,-3.38 3.85,-19.27 -10.84,-11.05 -3.58,2.12 -9.11,11.1 0.55,16.14 11.79,5.6 26.02,2.14 31.65,-4.35 11.54,-15.47 -7.25,-26.64 -26.81,-23.07 12.95,-4.25 21.64,0.34 28.64,2.78 13.96,5.96 20.17,-5.87 6.26,-10.22 -9.24,-2.5 -21.23,-2.26 -30.28,2.07 10.09,-6.42 26.75,-5.98 34.44,-4.47 11.46,1.33 12.87,-7.34 1.8,-9.71 -9.44,-1.35 -22.44,1.76 -30.95,7.63 10.79,-11.88 40.97,-8.66 40.81,-17.54 -0.04,-1.32 -1.4,-2.33 -3.27,-2.9 -1.07,-0.16 -2.13,-0.34 -3.19,-0.51 -1,-0.04 -2.02,0.04 -2.98,0.23 -11.37,2.03 -18.23,7.04 -27.13,14.89 4.24,-6.2 11.85,-11.81 18.73,-17 -2.22,-0.38 -4.46,-0.72 -6.67,-1.11 -3.86,6.81 -8.05,13.62 -13.68,17.09 4.74,-4.78 9.04,-11.26 11.71,-17.47 -2.81,-0.51 -5.6,-1.07 -8.39,-1.61 -0.24,6.39 -2.1,14.8 -9.42,24.45 2.8,-5.85 7.75,-15.01 6.9,-24.94 -4.96,-0.97 -9.89,-1.99 -14.82,-3.05 0.36,0.66 0.85,1.35 1.47,2.05 6.45,8 7.21,18.51 1.52,32 1.13,-8.23 3.52,-22.51 -3.17,-29.89 -12.15,-10.29 -19.55,2.76 -10.63,9.96 6.28,4.67 17.29,19.76 5.03,28.52 5.59,-10.56 0.98,-21.57 -7.43,-26.2 -6.35,-4.69 -18.2,-4.33 -21,3.04 -3.58,12.92 16.11,14.96 18.95,5.12 3.9,0.48 9.93,8.33 3.93,17.09 -10.87,14.19 -44.43,1.08 -36.52,-25.32 3.61,-11 13.74,-16.82 26.46,-21.28 -4.74,-1.15 -9.46,-2.33 -14.16,-3.57zm-196.92 -80.69c-3.48,0.79 -6.63,1.72 -9.33,2.88 -1.36,-2.72 0.83,-4.58 3.4,-6.36 -1.88,-1.1 -3.75,-2.21 -5.62,-3.32 -0.59,2.96 -1.38,5.65 -4.62,5.72 -0.09,-2.83 -0.62,-5.96 -1.44,-9.3 -4.27,-2.59 -8.48,-5.25 -12.69,-7.92 5.2,11.95 7.57,22.98 1.01,32.78 -15.93,22.61 -49.3,7.77 -45.18,-8.96 3.01,-9.83 13.99,-10.37 16.46,-8.33 -6.01,8.35 8.97,20.71 16.98,9.86 4.04,-6.7 -3.69,-15.18 -11.79,-16.57 -9.42,-2.82 -21.48,1.1 -25.65,12.15 -1.78,-14.5 17.87,-16.66 25.91,-15.31 11.85,1.51 17.38,-12.04 1.42,-13.5 -11.08,-0.2 -20.95,10.73 -26.85,16.86 7.57,-12.38 16.04,-18.99 26.83,-19.7 1.37,-0.02 2.54,-0.22 3.53,-0.52 -4.22,-2.83 -8.42,-5.71 -12.58,-8.61 -9.15,5.81 -13.36,15.55 -16.27,21.45 2.98,-11.88 8.91,-18.69 14.11,-22.95 -2.25,-1.58 -4.51,-3.15 -6.75,-4.75 -3.6,5.93 -6.27,13.4 -6.56,20.31 -1.06,-6.43 1.81,-14.2 4.73,-21.65 -2.1,-1.51 -4.18,-3.04 -6.27,-4.57 0.48,8.52 1.31,18.07 -0.94,25.43 0.33,-11.25 -0.33,-19.28 -6.38,-28.49 -2.18,-3.43 -6.85,-6.13 -8.97,-4.48 -7.28,5.6 15.76,24.48 13.53,39.69 -1.06,-9.71 -7.34,-20.76 -14.81,-26.44 -8.84,-5.82 -15.49,0.42 -6.68,7.54 7.01,4.7 18.07,15.65 19.75,26.8 -2.64,-9.1 -9.99,-17.24 -18.29,-22.05 -13.48,-7.16 -18.8,4.86 -4.54,10.68 6.67,3.26 16.25,6.31 22.17,18.37 -10.39,-15.89 -32.67,-22.01 -37.35,-3.98 -0.91,8.41 5.45,20.19 17.93,24.8 10.66,3.44 14.17,-6.21 13.42,-10.1 -2.77,-15.21 -25.52,-14.8 -15.76,-0.04 -6.35,-3.16 -10.29,-8.8 -7.39,-15.68 6.36,-8.83 23.84,-5.47 30.78,16.67 3.9,18.17 24.24,31.07 44.87,24.24 -6.91,15.87 -17.84,2.31 -22.42,1.87 -3,2.72 5.6,12.06 15.87,9.21 -2.68,7.22 -16.93,4.84 -9.96,17.18 0.09,0.21 0.16,0.44 0.24,0.67 0.09,-0.13 0.18,-0.27 0.25,-0.39 14.41,0.06 6.29,-10.54 11.51,-16.28 1.84,9.85 15.1,13.21 15.85,9.19 -2.47,-3.64 -20.28,-6.76 -8.2,-19.62 1.34,10.34 7.4,18.23 15.38,22.91 7.98,4.68 18.11,6.37 27.8,3.92 24.79,-3.73 35.27,9.12 29.68,18.38 -5.3,5.52 -12.47,4.68 -17.79,1.06 17.92,1.29 8.71,-17.61 -7.61,-13.48 -4.01,1.12 -11.67,8.36 -3.65,15.73 9.94,8.46 24.58,8.8 31.71,3.99 15.15,-11.96 -0.11,-27.6 -19.93,-29.22 13.62,-0.75 20.82,5.93 26.95,10.09 11.94,9.37 21,-0.45 8.69,-8.26 -8.29,-4.8 -19.93,-7.68 -29.79,-5.83 11.4,-3.58 27.38,1.15 34.42,4.61 10.73,4.24 14.33,-3.78 4.26,-8.93 -8.78,-3.75 -22.13,-4.11 -31.87,-0.64 13.5,-8.68 41.81,2.24 43.95,-6.38 0.29,-1.22 -0.66,-2.48 -2.19,-3.5 -1.22,-0.54 -2.45,-1.06 -3.66,-1.6 -0.8,-0.22 -1.62,-0.36 -2.43,-0.42 -11.51,-0.99 -19.44,2.1 -30.07,7.37 5.69,-4.87 14.44,-8.32 22.42,-11.54 -2.04,-0.94 -4.06,-1.88 -6.08,-2.83 -5.49,5.57 -11.3,11.07 -17.64,12.96 5.8,-3.37 11.63,-8.51 15.81,-13.82 -2.56,-1.23 -5.13,-2.45 -7.68,-3.69 -1.89,6.09 -5.87,13.71 -15.41,21.12 4.22,-4.92 11.35,-12.47 13.12,-22.27 -4.53,-2.22 -9.04,-4.45 -13.51,-6.76 0.18,0.71 0.47,1.49 0.88,2.3 4.15,9.4 2.18,19.74 -6.82,31.3 3.22,-7.65 9.23,-20.83 4.68,-29.69 -9.07,-13.09 -19.59,-2.39 -12.84,6.87 4.85,6.14 11.58,23.56 -2.53,28.86 8.13,-8.76 6.53,-20.59 -0.4,-27.24 -4.91,-6.18 -16.46,-8.89 -21.08,-2.49 -6.8,11.55 11.69,18.62 16.98,9.85 3.63,1.47 7.43,10.61 -0.62,17.51 -14.17,10.9 -43.2,-10.45 -28.72,-33.9 6.33,-9.7 17.64,-12.69 31.08,-13.7 -4.26,-2.34 -8.52,-4.7 -12.73,-7.12zm-169.13 -128.89c-3.66,-0.16 -7.02,-0.07 -10,0.36 -0.61,-3.03 2.06,-4.24 5.05,-5.31 -1.55,-1.58 -3.09,-3.16 -4.63,-4.74 -1.36,2.74 -2.81,5.23 -6.01,4.44 0.66,-2.81 0.96,-6.04 1.02,-9.54 -3.46,-3.61 -6.85,-7.26 -10.24,-10.93 1.96,12.97 1.43,24.3 -7.48,32.1 -21.23,17.73 -49.62,-5.25 -41.32,-20.35 5.46,-8.71 16.2,-6.39 18.07,-3.78 -7.97,6.52 3.3,22.33 13.85,13.91 5.64,-5.42 0.37,-15.62 -7.1,-19.06 -8.36,-5.16 -21.03,-4.5 -27.92,5.09 2.03,-14.47 21.57,-11.47 28.99,-8.09 11.05,4.53 19.9,-7.13 4.86,-12.67 -10.65,-3.06 -23.02,4.94 -30.29,9.33 10.51,-10 20.4,-14.19 31,-12.08 1.38,0.34 2.6,0.46 3.67,0.4 -3.37,-3.84 -6.7,-7.7 -9.99,-11.59 -10.37,3.23 -16.98,11.57 -21.32,16.54 5.98,-10.74 13.5,-15.79 19.62,-18.54 -1.77,-2.11 -3.57,-4.2 -5.33,-6.32 -5.02,4.79 -9.53,11.33 -11.6,17.93 0.63,-6.5 5.43,-13.27 10.18,-19.71 -1.64,-2.01 -3.25,-4.03 -4.87,-6.05 -1.75,8.36 -3.42,17.82 -7.5,24.36 3.23,-10.78 4.67,-18.71 1.2,-29.16 -1.23,-3.89 -5.03,-7.7 -7.5,-6.67 -8.5,3.53 8.88,27.74 2.79,41.84 1.49,-9.65 -1.72,-21.95 -7.46,-29.37 -7.04,-7.91 -15.07,-3.6 -8.4,5.55 5.56,6.35 13.41,19.8 12.14,31 -0.19,-9.47 -5.19,-19.24 -11.96,-26.03 -11.17,-10.41 -19.41,-0.16 -7.16,9.13 5.6,4.88 14.06,10.31 16.67,23.49 -5.92,-18.04 -25.86,-29.72 -35.05,-13.51 -3.05,7.89 0.04,20.91 10.9,28.59 9.42,6.09 15.29,-2.33 15.58,-6.27 1.26,-15.41 -20.82,-20.9 -15.2,-4.12 -5.31,-4.69 -7.67,-11.16 -3.08,-17.06 8.43,-6.89 24.44,0.89 25.43,24.07 -0.94,18.55 15.38,36.29 37.06,35.01 -10.78,13.55 -17.82,-2.38 -22.13,-3.99 -3.6,1.85 2.3,13.09 12.95,12.99 -4.45,6.29 -17.6,0.3 -14.07,14.02 0.03,0.22 0.04,0.47 0.06,0.71 0.12,-0.11 0.24,-0.21 0.34,-0.3 13.91,3.78 8.8,-8.55 15.34,-12.75 -0.77,10 11.16,16.68 12.93,12.99 -1.44,-4.16 -17.84,-11.78 -2.85,-21.08 -1.39,10.34 2.42,19.53 8.92,26.12 6.5,6.58 15.85,10.83 25.84,10.98 24.91,2.81 31.71,17.94 23.92,25.44 -6.55,3.95 -13.26,1.29 -17.46,-3.58 16.97,5.89 12.98,-14.76 -3.86,-14.99 -4.17,0.05 -13.44,5.05 -7.6,14.25 7.42,10.75 21.46,14.87 29.59,12.07 17.72,-7.63 7.04,-26.7 -11.68,-33.38 13.35,2.79 18.57,11.11 23.41,16.72 9.11,12.14 20.4,4.99 10.53,-5.73 -6.76,-6.78 -17.26,-12.56 -27.26,-13.34 11.95,-0.51 26.15,8.2 32.06,13.35 9.26,6.88 14.81,0.07 6.41,-7.51 -7.5,-5.89 -20.31,-9.69 -30.61,-8.87 15.28,-4.88 39.81,12.98 44.11,5.22 1.23,-2.28 -2.59,-6.12 -6.58,-7.48 -10.87,-3.93 -19.31,-3.01 -30.94,-0.66 6.8,-3.26 16.25,-4.31 24.85,-5.37 -1.74,-1.45 -3.46,-2.92 -5.19,-4.38 -6.79,4 -13.89,7.87 -20.56,8.05 6.54,-1.77 13.57,-5.28 19,-9.37 -2.18,-1.85 -4.37,-3.69 -6.53,-5.56 -3.39,5.42 -9.21,11.82 -20.43,16.54 5.38,-3.69 14.29,-9.16 18.5,-18.26 -3.8,-3.33 -7.61,-6.67 -11.36,-10.08 -0.03,0.79 0.04,1.67 0.24,2.65 1.58,10.15 -3.01,19.64 -14.68,28.47 5.08,-6.56 14.3,-17.73 12.2,-27.48 -5.37,-15 -18.3,-7.39 -14.19,3.31 3.1,7.19 5.09,25.76 -9.91,27.22 10.12,-6.35 11.63,-18.19 6.66,-26.41 -3.15,-7.23 -13.59,-12.84 -19.7,-7.86 -9.57,9.4 6.47,21.01 13.85,13.91 3.13,2.37 4.44,12.17 -5.13,16.76 -16.51,6.86 -39.03,-21.28 -18.97,-40.18 8.67,-7.77 20.46,-7.69 33.8,-5.15 -3.52,-3.37 -6.99,-6.78 -10.45,-10.2zm-130.41 -168.34c-3.43,-1.06 -6.64,-1.84 -9.58,-2.18 0.19,-3.02 2.97,-3.54 6.07,-3.8 -1.08,-1.88 -2.11,-3.78 -3.17,-5.67 -1.99,2.25 -4.01,4.17 -6.85,2.62 1.34,-2.5 2.45,-5.47 3.4,-8.78 -2.4,-4.34 -4.73,-8.72 -7.04,-13.1 -1.48,12.91 -4.96,23.6 -15.51,28.8 -25.09,11.62 -46.57,-17.93 -34.64,-30.36 7.51,-7 17.29,-1.98 18.42,1.03 -9.37,4.23 -2.58,22.42 9.78,17.02 6.85,-3.77 4.41,-14.99 -1.92,-20.24 -6.74,-7.15 -19.15,-9.79 -28.29,-2.3 5.71,-13.45 23.8,-5.49 30.1,-0.31 9.5,7.24 21.07,-1.73 7.97,-10.98 -9.5,-5.72 -23.52,-1.18 -31.68,1.17 12.75,-6.94 23.38,-8.43 33.07,-3.65 1.16,0.65 2.24,1.06 3.23,1.29 -2.25,-4.56 -4.47,-9.12 -6.64,-13.72 -10.76,0.5 -19.23,6.79 -24.68,10.44 8.47,-8.75 16.96,-11.7 23.57,-12.8 -1.16,-2.48 -2.33,-4.95 -3.47,-7.44 -6.04,3.34 -12.03,8.44 -15.71,14.24 2.28,-6.06 8.56,-11.31 14.77,-16.27 -1.06,-2.33 -2.04,-4.69 -3.08,-7.04 -3.83,7.57 -7.86,16.18 -13.44,21.39 5.91,-9.58 9.35,-16.86 8.71,-27.86 -0.18,-4.06 -2.86,-8.74 -5.52,-8.37 -9.11,1.21 1.41,29.08 -8.13,41.13 3.94,-8.92 4.02,-21.65 0.39,-30.29 -4.75,-9.46 -13.63,-7.38 -9.56,3.19 3.72,7.57 7.83,22.59 3.7,33.07 2.27,-9.18 -0.04,-19.93 -4.82,-28.24 -8.09,-12.94 -18.71,-5.18 -9.28,6.98 4.15,6.16 10.92,13.59 10.03,27.01 -1.06,-18.96 -17.3,-35.41 -30.36,-22.12 -5,6.83 -5.38,20.21 3.12,30.43 7.52,8.32 15.38,1.71 16.67,-2.03 5.21,-14.55 -14.69,-25.57 -13.62,-7.91 -3.92,-5.9 -4.51,-12.77 1.44,-17.28 9.92,-4.47 23.37,7.18 18.33,29.83 -5.71,17.68 5.46,39.03 26.73,43.42 -13.92,10.29 -16.6,-6.92 -20.35,-9.59 -3.95,0.85 -1.17,13.24 9.14,15.9 -5.93,4.92 -17.08,-4.27 -17.22,9.9 -0.03,0.22 -0.07,0.46 -0.13,0.7 0.15,-0.07 0.29,-0.14 0.42,-0.2 12.45,7.25 10.71,-5.98 18.11,-8.35 -3.32,9.45 6.47,19 9.13,15.89 -0.31,-4.39 -14.18,-15.99 2.71,-21.1 -4.01,9.63 -2.71,19.49 1.86,27.54 4.57,8.04 12.49,14.57 22.12,17.3 23.33,9.16 25.98,25.53 16.51,30.76 -7.35,2.13 -13.14,-2.18 -15.95,-7.98 14.87,10.09 16.37,-10.9 0.16,-15.47 -4.04,-1.03 -14.29,1.4 -11.02,11.79 4.38,12.3 16.89,19.92 25.46,19.32 19.1,-2.79 13.72,-23.96 -2.64,-35.27 12.16,6.15 15.06,15.54 18.28,22.21 5.65,14.09 18.41,10.11 11.65,-2.8 -4.77,-8.3 -13.41,-16.61 -22.88,-19.95 11.68,2.6 23.14,14.69 27.51,21.2 7.16,9.04 14.29,3.89 8.15,-5.6 -5.73,-7.62 -17.11,-14.62 -27.28,-16.48 16.03,-0.76 35.1,22.85 41.26,16.46 1.09,-1.14 0.52,-3.31 -0.88,-5.37l-0.5 -0.7c-0.85,-1.08 -1.9,-2.09 -3.03,-2.85 -9.48,-6.61 -17.88,-7.91 -29.72,-8.66 7.39,-1.38 16.75,0.03 25.31,1.23 -1.3,-1.84 -2.56,-3.7 -3.85,-5.54 -7.58,2.1 -15.41,3.98 -21.88,2.44 6.76,-0.02 14.43,-1.57 20.72,-4.11 -1.62,-2.35 -3.27,-4.67 -4.88,-7.03 -4.67,4.34 -11.94,8.99 -23.95,10.64 6.12,-2.16 16.1,-5.14 22.53,-12.78 -2.82,-4.19 -5.6,-8.41 -8.33,-12.65 -0.22,0.74 -0.37,1.58 -0.42,2.53 -1.1,10.22 -7.99,18.19 -21.55,23.7 6.61,-5.02 18.4,-13.42 18.89,-23.37 -1.32,-15.88 -15.77,-11.88 -14.56,-0.48 1.14,7.75 -1.75,26.2 -16.62,23.73 11.42,-3.51 15.94,-14.56 13.27,-23.79 -1.17,-7.8 -9.8,-15.93 -17,-12.69 -11.67,6.6 0.81,21.97 9.78,17.02 2.41,3.1 1.13,12.91 -9.3,14.86 -17.72,2.35 -32.18,-30.65 -7.91,-43.72 10.33,-5.23 21.62,-2.17 33.76,3.66 -2.51,-4.13 -4.96,-8.32 -7.4,-12.51zm-82.31 -196.34c-3.01,-1.9 -5.89,-3.46 -8.61,-4.55 0.96,-2.85 3.77,-2.65 6.82,-2.1 -0.55,-2.09 -1.1,-4.16 -1.63,-6.25 -2.48,1.63 -4.9,2.92 -7.22,0.71 1.93,-2.07 3.77,-4.65 5.54,-7.58 -1.17,-4.8 -2.33,-9.62 -3.42,-14.46 -4.76,12.07 -10.89,21.48 -22.42,23.76 -27.25,4.74 -40.34,-29.36 -25.6,-38.28 9.07,-4.82 17.22,2.56 17.53,5.75 -10.16,1.66 -8.3,20.99 5.03,18.97 7.6,-1.87 8.14,-13.34 3.38,-20.06 -4.66,-8.64 -15.96,-14.4 -26.73,-9.54 9,-11.52 24.41,0.85 29.16,7.5 7.3,9.45 20.8,3.77 10.55,-8.56 -7.69,-7.97 -22.41,-7.22 -30.9,-7.06 14.1,-3.4 24.76,-2.08 32.89,5.04 0.96,0.93 1.9,1.61 2.8,2.09 -1,-4.97 -1.98,-9.97 -2.87,-14.98 -10.53,-2.3 -20.34,1.58 -26.54,3.69 10.45,-6.27 19.43,-6.91 26.1,-6.26 -0.48,-2.7 -0.89,-5.42 -1.34,-8.12 -6.74,1.66 -13.89,5.05 -18.97,9.72 3.79,-5.29 11.28,-8.75 18.6,-11.95 -0.42,-2.52 -0.86,-5.03 -1.26,-7.56 -5.66,6.33 -11.8,13.61 -18.54,17.2 8.18,-7.72 13.39,-13.87 15.62,-24.66 0.88,-3.97 -0.5,-9.18 -3.17,-9.51 -9.12,-1.19 -6.17,28.46 -18.51,37.62 6.12,-7.6 9.49,-19.87 8.23,-29.16 -2.14,-10.36 -11.26,-10.65 -10.05,0.61 1.63,8.28 1.71,23.85 -4.99,32.91 4.56,-8.29 5.12,-19.26 2.65,-28.53 -4.47,-14.59 -16.72,-9.85 -10.76,4.34 2.41,7.02 7.03,15.96 2.69,28.68 3.89,-18.58 -7.54,-38.67 -23.6,-29.23 -6.58,5.31 -10.42,18.13 -4.85,30.22 5.1,9.97 14.4,5.63 16.62,2.35 8.8,-12.71 -7.57,-28.5 -11.11,-11.17 -2.25,-6.71 -1.06,-13.5 5.86,-16.31 10.74,-1.76 20.72,12.98 9.97,33.56 -10.08,15.59 -4.82,39.11 14.59,48.85 -16.11,6.34 -14.24,-10.98 -17.17,-14.53 -4.04,-0.19 -4.56,12.49 4.72,17.73 -7.01,3.22 -15.4,-8.55 -19.2,5.11 -0.08,0.21 -0.19,0.43 -0.3,0.65 0.16,-0.04 0.31,-0.07 0.45,-0.1 10.15,10.23 11.9,-3.01 19.66,-3.38 -5.66,8.27 1.33,20.02 4.7,17.71 0.83,-4.32 -9.56,-19.12 8.08,-19.68 -6.37,8.27 -7.66,18.13 -5.34,27.08 2.34,8.95 8.31,17.3 16.89,22.44 20.17,14.89 18.48,31.38 7.99,33.98 -7.65,0.16 -12.13,-5.51 -13.34,-11.83 11.76,13.59 18.62,-6.29 4.16,-14.91 -3.63,-2.04 -14.17,-2.34 -13.7,8.54 1.05,13.01 11.16,23.61 19.59,25.24 19.18,2.26 19.45,-19.59 6.58,-34.75 10.15,9.1 10.52,18.92 11.91,26.18 1.81,15.08 15.16,14.54 11.97,0.31 -2.45,-9.25 -8.66,-19.51 -16.94,-25.18 10.61,5.53 18.56,20.17 21.09,27.59 4.59,10.59 12.79,7.46 9.32,-3.3 -3.55,-8.85 -12.75,-18.55 -22.08,-22.99 15.68,3.41 27.98,31.15 35.59,26.57 1.02,-0.62 1.26,-2.07 0.97,-3.76 -0.52,-1.35 -1.02,-2.69 -1.53,-4.04 -0.41,-0.7 -0.88,-1.37 -1.4,-1.97 -7.45,-8.83 -15.22,-12.26 -26.47,-16.05 7.44,0.57 16.04,4.3 23.94,7.66 -0.77,-2.08 -1.51,-4.18 -2.27,-6.27 -7.8,0.06 -15.79,-0.16 -21.59,-3.3 6.49,1.71 14.23,2.21 20.92,1.4 -0.95,-2.67 -1.9,-5.34 -2.82,-8.02 -5.64,2.97 -13.84,5.53 -25.8,4.02 6.44,-0.49 16.79,-0.79 24.95,-6.42 -1.62,-4.76 -3.17,-9.56 -4.71,-14.35 -0.39,0.63 -0.72,1.37 -1,2.22 -3.71,9.59 -12.42,15.5 -26.95,17.32 7.68,-3.13 21.26,-8.2 24.3,-17.69 2.84,-15.68 -12.16,-15.55 -13.94,-4.23 -0.91,7.77 -8.47,24.85 -22.18,18.62 11.93,-0.45 19.16,-9.94 18.97,-19.55 0.88,-7.84 -5.36,-17.93 -13.15,-16.66 -12.98,3.35 -4.89,21.43 5.05,18.97 1.53,3.61 -2.25,12.76 -12.82,11.95 -17.73,-2.32 -23.16,-37.94 3.66,-44.27 11.3,-2.39 21.4,3.46 31.59,12.21 -1.35,-4.64 -2.65,-9.3 -3.92,-13.98zm-28.44 -210.72c-2.48,-2.69 -4.91,-5.01 -7.31,-6.81 1.69,-2.57 4.44,-1.55 7.31,-0.19 0.01,-2.21 0.06,-4.42 0.09,-6.62 -2.91,0.98 -5.69,1.71 -7.4,-1.11 2.46,-1.52 4.95,-3.6 7.48,-6.03 0.1,-5 0.27,-9.99 0.48,-14.97 -7.79,10.57 -16.18,18.2 -28,17.41 -27.54,-2.48 -31.37,-38.8 -14.82,-43.6 10.01,-2.3 15.97,6.93 15.44,10.09 -10.24,-1.02 -13.45,18.13 -0.04,19.63 7.83,0.16 11.31,-10.78 8.46,-18.49 -2.26,-9.56 -11.68,-18.05 -23.35,-16.14 11.67,-8.79 23.36,7.14 26.22,14.79 4.6,11.01 19.11,9.03 12.4,-5.53 -5.37,-9.69 -19.77,-12.78 -28.03,-14.82 14.51,0.36 24.47,4.39 30.47,13.38 0.73,1.21 1.51,2.16 2.3,2.87 0.33,-5.1 0.68,-10.19 1.1,-15.27 -9.6,-5.02 -20.15,-3.8 -26.72,-3.37 11.8,-3.37 20.67,-1.63 26.95,0.75 0.24,-2.75 0.47,-5.49 0.74,-8.23 -6.95,-0.16 -14.75,1.26 -20.88,4.47 5.02,-4.13 13.18,-5.53 21.09,-6.73 0.25,-2.58 0.54,-5.14 0.82,-7.69 -7.13,4.66 -14.98,10.15 -22.47,11.88 9.91,-5.34 16.53,-9.93 21.47,-19.77 1.88,-3.61 1.89,-9 -0.59,-10.01 -8.5,-3.51 -13.33,25.89 -27.62,31.56 7.88,-5.77 14.31,-16.74 15.49,-26.04 0.62,-10.57 -8.11,-13.21 -9.86,-2.02 -0.56,8.42 -4.53,23.48 -13.34,30.5 6.56,-6.83 9.94,-17.28 9.95,-26.87 -0.53,-15.26 -13.61,-13.85 -11.52,1.4 0.51,7.4 2.65,17.23 -4.82,28.4 8.57,-16.95 2.73,-39.31 -15.23,-34.34 -7.75,3.42 -14.77,14.82 -12.51,27.92 2.34,10.96 12.46,9.17 15.44,6.58 11.79,-10 0.06,-29.5 -7.84,-13.67 -0.44,-7.07 2.47,-13.32 9.89,-14.24 10.83,1.09 16.66,17.9 0.96,35 -13.78,12.46 -14.79,36.53 1.44,50.97 -17.2,1.95 -10.92,-14.29 -12.83,-18.48 -3.85,-1.24 -7.63,10.87 -0.04,18.34 -7.6,1.3 -12.66,-12.23 -19.87,-0.03 -0.14,0.18 -0.29,0.36 -0.45,0.54 0.16,0.01 0.32,0.01 0.45,0.03 7.16,12.51 12.27,0.17 19.87,1.83 -7.61,6.52 -3.89,19.68 -0.04,18.32 1.92,-3.95 -4.29,-20.94 12.9,-16.92 -8.29,6.34 -12.1,15.53 -12.16,24.79 -0.06,9.25 3.54,18.86 10.5,26.04 15.63,19.59 9.74,35.1 -1.07,34.89 -7.43,-1.82 -10.29,-8.45 -9.82,-14.88 7.83,16.17 19.62,-1.26 7.88,-13.33 -2.99,-2.91 -13.09,-5.93 -15.45,4.7 -2.36,12.84 4.67,25.69 12.39,29.45 17.94,7.14 23.86,-13.89 15.35,-31.86 7.45,11.41 5.27,21 4.73,28.38 -2.15,15.03 10.9,17.96 11.49,3.4 0.02,-9.57 -3.31,-21.09 -9.84,-28.71 8.81,8.09 12.7,24.29 13.23,32.11 1.69,11.41 10.43,10.52 9.86,-0.78 -1.14,-9.47 -7.51,-21.21 -15.38,-27.92 14.26,7.35 18.97,37.33 27.51,34.87 1.41,-0.42 2.03,-2.34 1.95,-4.63l-0.23 -1.99c-0.22,-1.14 -0.58,-2.28 -1.09,-3.31 -4.91,-10.47 -11.53,-15.79 -21.41,-22.35 7.12,2.5 14.54,8.43 21.36,13.76 -0.2,-2.26 -0.41,-4.51 -0.6,-6.77 -7.62,-1.98 -15.35,-4.25 -20.19,-8.83 5.87,3.36 13.29,5.85 20.01,6.79 -0.22,-2.84 -0.42,-5.69 -0.62,-8.55 -6.24,1.44 -14.87,1.85 -26.15,-2.74 6.4,1.2 16.58,3.61 25.99,0.17 -0.34,-5.05 -0.66,-10.09 -0.91,-15.16 -0.58,0.53 -1.16,1.21 -1.7,2.05 -6.06,8.3 -16.01,11.75 -30.51,9.74 8.23,-1.03 22.65,-2.41 28.05,-10.79 6.8,-14.4 -7.71,-18.17 -12.37,-7.69 -2.89,7.27 -14.62,21.81 -26.26,12.23 11.65,2.67 21.08,-4.63 23.38,-13.96 2.89,-7.35 -0.53,-18.7 -8.38,-19.5 -13.41,-0.11 -10.27,19.43 -0.04,19.64 0.54,3.88 -5.48,11.74 -15.48,8.22 -16.52,-6.83 -12.55,-42.64 15.01,-41.82 11.64,0.63 19.91,9.03 27.55,20.27 -0.11,-4.86 -0.16,-9.74 -0.19,-14.62zm26.76 -211.35c-1.66,-3.14 -3.36,-5.92 -5.17,-8.21 2.26,-2.01 4.6,-0.42 6.97,1.58 0.56,-2.07 1.1,-4.16 1.68,-6.23 -2.96,0.17 -5.69,0.07 -6.58,-3 2.69,-0.82 5.54,-2.12 8.53,-3.76 1.37,-4.74 2.76,-9.46 4.21,-14.17 -10.12,8.01 -20.1,13.05 -31.18,9.27 -25.97,-9.52 -20.26,-45.6 -3.03,-45.95 10.27,0.36 13.63,10.83 12.3,13.75 -9.63,-3.64 -17.68,14.02 -5.12,18.95 7.51,2.17 13.72,-7.49 12.95,-15.68 0.29,-9.82 -6.62,-20.46 -18.37,-21.63 13.55,-5.48 20.72,12.95 21.5,21.07 1.6,11.83 16.13,13.67 13.4,-2.13 -2.67,-10.76 -15.79,-17.46 -23.23,-21.57 13.91,4.1 22.49,10.58 25.96,20.8 0.35,1.23 0.8,2.24 1.31,3.09 1.62,-4.8 3.33,-9.56 5.04,-14.32 -7.96,-7.22 -18.37,-8.76 -24.79,-10.03 12.13,-0.19 20.21,3.69 25.66,7.57 0.94,-2.56 1.91,-5.12 2.87,-7.68 -6.65,-1.91 -14.48,-2.53 -21.18,-1.03 5.89,-2.68 14.08,-1.95 21.98,-1.07 0.9,-2.37 1.79,-4.76 2.71,-7.13 -8.05,2.65 -16.97,5.86 -24.59,5.6 10.96,-2.59 18.54,-5.31 25.87,-13.54 2.74,-3 4.15,-8.2 2.01,-9.82 -7.3,-5.59 -19.58,21.57 -34.84,23.34 9.1,-3.53 18.16,-12.46 21.71,-21.15 3.32,-10.04 -4.42,-14.85 -9.02,-4.5 -2.73,7.98 -10.44,21.52 -20.77,26 8.1,-4.9 14.06,-14.11 16.56,-23.37 3.43,-14.87 -9.56,-16.9 -11.49,-1.63 -1.43,7.29 -1.9,17.33 -12.01,26.18 12.66,-14.15 12.8,-37.26 -5.83,-37.11 -8.36,1.29 -18.1,10.49 -19.31,23.73 -0.57,11.19 9.65,12.08 13.22,10.35 13.97,-6.61 7.69,-28.47 -4.04,-15.23 1.4,-6.95 5.83,-12.22 13.24,-11.19 10.17,3.86 11.45,21.6 -8.14,34.05 -16.54,8.47 -23.74,31.46 -11.79,49.6 -17.12,-2.56 -6.85,-16.63 -7.6,-21.16 -3.4,-2.19 -10.2,8.53 -4.79,17.7 -7.67,-0.71 -9.05,-15.09 -19.18,-5.17 -0.18,0.14 -0.37,0.28 -0.58,0.41 0.16,0.04 0.3,0.1 0.43,0.14 3.68,13.93 11.81,3.35 18.71,6.9 -9.04,4.33 -8.86,18.01 -4.78,17.69 2.88,-3.31 1.27,-21.34 16.83,-13 -9.65,3.97 -15.7,11.87 -18.16,20.79 -2.45,8.92 -1.46,19.14 3.41,27.87 10.02,22.98 0.32,36.42 -10.07,33.43 -6.7,-3.69 -7.75,-10.84 -5.63,-16.92 3.38,17.64 19.27,3.86 11.05,-10.84 -2.13,-3.59 -11.1,-9.11 -16.14,0.54 -5.6,11.8 -2.14,26.03 4.35,31.66 15.47,11.54 26.64,-7.25 23.07,-26.81 4.25,12.95 -0.34,21.64 -2.77,28.63 -5.97,13.96 5.86,20.16 10.21,6.26 2.5,-9.24 2.26,-21.23 -2.07,-30.28 6.42,10.09 5.98,26.75 4.47,34.43 -1.33,11.47 7.34,12.87 9.71,1.81 1.35,-9.45 -1.75,-22.44 -7.63,-30.96 11.88,10.8 8.67,40.97 17.54,40.81 1.3,-0.03 2.3,-1.37 2.88,-3.21 0.16,-1.11 0.36,-2.21 0.53,-3.31 0.04,-0.97 -0.04,-1.97 -0.23,-2.91 -2.03,-11.38 -7.04,-18.23 -14.89,-27.13 6.2,4.24 11.81,11.84 17,18.73 0.38,-2.22 0.72,-4.46 1.12,-6.68 -6.81,-3.86 -13.62,-8.05 -17.09,-13.68 4.77,4.74 11.24,9.04 17.46,11.7 0.51,-2.8 1.06,-5.58 1.61,-8.38 -6.38,-0.24 -14.8,-2.1 -24.45,-9.42 5.85,2.8 15,7.74 24.92,6.9 0.97,-4.96 1.99,-9.89 3.05,-14.82 -0.66,0.37 -1.35,0.85 -2.04,1.46 -8,6.45 -18.51,7.21 -32,1.52 8.23,1.13 22.51,3.52 29.89,-3.17 10.29,-12.15 -2.76,-19.55 -9.96,-10.64 -4.67,6.28 -19.76,17.29 -28.52,5.03 10.56,5.59 21.57,0.97 26.2,-7.44 4.7,-6.35 4.33,-18.2 -3.04,-21 -12.92,-3.57 -14.96,16.11 -5.12,18.95 -0.48,3.9 -8.32,9.93 -17.08,3.94 -14.19,-10.87 -1.09,-44.44 25.31,-36.51 11,3.61 16.82,13.74 21.27,26.44 1.16,-4.73 2.33,-9.46 3.57,-14.16zm80.69 -196.92c-0.78,-3.47 -1.72,-6.62 -2.88,-9.31 2.72,-1.36 4.57,0.82 6.35,3.39 1.1,-1.88 2.21,-3.75 3.31,-5.62 -2.94,-0.6 -5.63,-1.38 -5.7,-4.62 2.83,-0.09 5.95,-0.62 9.28,-1.43 2.59,-4.27 5.25,-8.48 7.91,-12.69 -11.94,5.19 -22.97,7.56 -32.76,1 -22.61,-15.92 -7.77,-49.29 8.96,-45.17 9.83,3 10.37,13.99 8.32,16.46 -8.35,-6 -20.71,8.97 -9.84,16.98 6.7,4.05 15.18,-3.68 16.57,-11.79 2.82,-9.42 -1.1,-21.48 -12.15,-25.65 14.5,-1.78 16.66,17.87 15.31,25.91 -1.51,11.85 12.04,17.38 13.5,1.41 0.2,-11.07 -10.73,-20.95 -16.86,-26.85 12.38,7.57 18.99,16.04 19.7,26.82 0.02,1.37 0.22,2.53 0.52,3.53 2.83,-4.22 5.71,-8.42 8.61,-12.59 -5.81,-9.14 -15.54,-13.35 -21.45,-16.26 11.88,2.98 18.68,8.91 22.94,14.11 1.58,-2.25 3.15,-4.51 4.75,-6.75 -5.93,-3.6 -13.39,-6.26 -20.3,-6.55 6.42,-1.06 14.19,1.81 21.64,4.72 1.5,-2.1 3.03,-4.18 4.56,-6.26 -8.51,0.48 -18.07,1.31 -25.42,-0.94 11.25,0.33 19.28,-0.33 28.48,-6.39 3.43,-2.19 6.14,-6.85 4.49,-8.96 -5.6,-7.29 -24.48,15.76 -39.69,13.52 9.71,-1.06 20.77,-7.34 26.44,-14.8 5.82,-8.84 -0.42,-15.5 -7.54,-6.68 -4.7,7.01 -15.64,18.08 -26.79,19.75 9.1,-2.64 17.24,-10 22.05,-18.3 7.16,-13.47 -4.86,-18.79 -10.67,-4.54 -3.27,6.67 -6.32,16.25 -18.38,22.18 15.89,-10.39 22.01,-32.67 3.98,-37.35 -8.41,-0.91 -20.19,5.46 -24.79,17.93 -3.45,10.67 6.2,14.17 10.09,13.42 15.21,-2.76 14.8,-25.51 0.04,-15.75 3.16,-6.35 8.79,-10.3 15.68,-7.39 8.83,6.36 5.47,23.83 -16.67,30.78 -18.17,3.89 -31.07,24.24 -24.24,44.87 -15.88,-6.91 -2.3,-17.84 -1.87,-22.42 -2.72,-3 -12.06,5.6 -9.21,15.87 -7.22,-2.67 -4.84,-16.93 -17.18,-9.97 -0.21,0.09 -0.44,0.16 -0.67,0.24 0.13,0.08 0.27,0.18 0.39,0.25 -0.06,14.41 10.54,6.29 16.28,11.51 -9.85,1.84 -13.21,15.09 -9.19,15.85 3.64,-2.47 6.76,-20.28 19.63,-8.2 -10.35,1.34 -18.24,7.39 -22.92,15.38 -4.68,7.98 -6.37,18.11 -3.92,27.8 3.73,24.79 -9.12,35.27 -18.38,29.68 -5.52,-5.3 -4.67,-12.47 -1.06,-17.8 -1.3,17.92 17.62,8.72 13.48,-7.6 -1.12,-4.01 -8.36,-11.68 -15.73,-3.65 -8.46,9.94 -8.8,24.59 -3.99,31.7 11.96,15.16 27.61,-0.1 29.22,-19.92 0.76,13.61 -5.93,20.82 -10.08,26.94 -9.38,11.94 0.45,21 8.25,8.69 4.8,-8.28 7.68,-19.92 5.83,-29.78 3.58,11.4 -1.14,27.38 -4.6,34.42 -4.24,10.73 3.77,14.32 8.93,4.25 3.75,-8.77 4.11,-22.13 0.63,-31.86 8.68,13.49 -2.24,41.81 6.38,43.95 1.2,0.29 2.46,-0.64 3.47,-2.16 0.55,-1.25 1.09,-2.51 1.65,-3.76 0.2,-0.78 0.34,-1.59 0.4,-2.37 0.98,-11.52 -2.09,-19.44 -7.37,-30.07 4.87,5.68 8.32,14.43 11.54,22.4 0.94,-2.03 1.88,-4.05 2.83,-6.07 -5.57,-5.49 -11.07,-11.3 -12.95,-17.63 3.37,5.8 8.51,11.62 13.81,15.79 1.22,-2.56 2.45,-5.12 3.69,-7.67 -6.09,-1.89 -13.71,-5.87 -21.11,-15.4 4.92,4.21 12.46,11.34 22.25,13.11 2.22,-4.52 4.46,-9.03 6.76,-13.5 -0.72,0.18 -1.49,0.47 -2.3,0.88 -9.4,4.15 -19.74,2.18 -31.3,-6.82 7.65,3.22 20.83,9.23 29.69,4.67 13.09,-9.07 2.4,-19.59 -6.87,-12.84 -6.14,4.85 -23.57,11.58 -28.85,-2.53 8.76,8.13 20.57,6.52 27.23,-0.41 6.18,-4.91 8.89,-16.46 2.5,-21.07 -11.57,-6.8 -18.62,11.69 -9.86,16.98 -1.47,3.63 -10.61,7.43 -17.51,-0.62 -10.9,-14.18 10.45,-43.2 33.9,-28.73 9.7,6.33 12.69,17.64 13.7,31.07 2.34,-4.27 4.7,-8.52 7.11,-12.73zm706.11 1040.54l-67.43 -0.04c-1.77,-37.41 -18.86,-62.85 -54.7,-73.31 -51.06,-10.08 -94.57,19.11 -98.33,73.21l-137.59 -0.08 0.94 -37.45 111.68 -113.94c-44.02,-26.1 -83.49,-55.14 -119.32,-92.14 -81.68,-90.59 -109.87,-199.83 -119.92,-319.96 73.31,-5.38 126.32,-44.09 154.16,-113.41 25.31,-78.72 3.76,-152.16 -63.81,-199.58l-0.02 146.97 -89.99 -0.03 0.01 -210.3 -58.42 0.07 -0.01 -57.61c86.54,-5.14 158.96,11.69 228.54,65.52 67.41,61.52 98.98,135.74 90.39,228.11 -14.31,78.08 -51.99,131.8 -111.12,182.37l-23.58 17.28c44.15,108.29 122.61,202.84 234.23,241.03l-0.04 -611.99 30.2 0.05 -1.09 619.8c24.97,7.23 49.88,11.7 75.91,11.48l1.48 -727.83c-76.71,-7.36 -139.15,-38.16 -196.05,-90.76l20.83 -23.52c24.77,20.51 50.14,39.53 78.74,54.2 30.94,15.04 62.62,22.69 96.58,26.7l0.14 -85.57c-46.63,-6.06 -85.89,-28.55 -121.07,-59.46l19.51 -23.47c29.29,26.27 62.26,45.21 101.62,49.17l0 -85.87c-21.61,-0.91 -36.32,-6.99 -51.61,-22.74l16.93 -19.94c9.66,10.67 20.45,15.65 34.78,14.48l0.07 -56.18 19.59 -22.62 19.5 22.67 -0.12 56.17c14.33,1.22 25.11,-3.74 34.83,-14.38l16.87 19.99c-15.35,15.7 -30.09,21.75 -51.68,22.6l-0.3 85.87c39.38,-3.89 72.39,-22.72 101.78,-48.9l19.43 23.51c-35.29,30.84 -74.62,53.19 -121.26,59.17l-0.15 85.55c30.05,-3.47 58.48,-9.72 86.43,-21.67 32.81,-14.9 61.3,-35.91 89.14,-58.78l20.74 23.55c-57.02,52.46 -119.63,83.14 -196.31,90.28l-0.98 727.83c26.04,0.26 50.93,-4.16 75.94,-11.33l1 -619.76 30.2 0.02 -2.1 611.94c111.74,-37.99 190.47,-132.28 234.98,-240.5 -58.03,-42.76 -98.73,-88.26 -124.27,-157.01 -22.41,-81.97 -9.9,-153.2 37.02,-223.39 57.42,-72.32 128.66,-105.35 218.82,-113.65l54.22 1.33 -0.2 57.59 -58.4 -0.21 -0.69 210.23 -89.94 -0.17 0.48 -146.93c-67.71,47.24 -89.49,120.62 -64.46,199.38 27.6,69.36 80.44,108.17 153.7,113.74 -7.76,89.19 -25.01,173.33 -69.55,251.46 -43.44,70.06 -101.07,118.8 -170.98,160.05l111.27 114.14 0.81 37.44 -137.55 -0.17c-3.02,-45.63 -32.64,-73.07 -76.95,-75.67 -45.57,1.06 -73.71,29.15 -76.05,75.48l-67.44 -0.08z"/>
 </g>
</svg>
