<?xml version="1.0" encoding="UTF-8"?>
<!DOCTYPE svg PUBLIC "-//W3C//DTD SVG 1.1//EN" "http://www.w3.org/Graphics/SVG/1.1/DTD/svg11.dtd">
<svg xmlns="http://www.w3.org/2000/svg" version="1.1" width="1362px" height="284px" style="shape-rendering:geometricPrecision; text-rendering:geometricPrecision; image-rendering:optimizeQuality; fill-rule:evenodd; clip-rule:evenodd" xmlns:xlink="http://www.w3.org/1999/xlink">
<g><path style="opacity:0.982" fill="#fefffe" d="M 73.5,24.5 C 97.1761,24.1669 120.843,24.5003 144.5,25.5C 138.443,52.1093 133.443,78.776 129.5,105.5C 166.026,78.4735 202.693,51.6401 239.5,25C 267.5,24.3333 295.5,24.3333 323.5,25C 281.215,56.9505 239.215,89.2838 197.5,122C 227.833,167 258.167,212 288.5,257C 260.494,257.833 232.494,257.667 204.5,256.5C 184.225,225.56 163.558,194.894 142.5,164.5C 122.472,179.183 102.806,194.349 83.5,210C 91.9598,206.775 100.293,202.942 108.5,198.5C 105.647,217.778 101.98,237.111 97.5,256.5C 73.8333,257.833 50.1667,257.833 26.5,256.5C 42.1724,179.138 57.8391,101.804 73.5,24.5 Z"/></g>
<g><path style="opacity:0.984" fill="#fefffe" d="M 856.5,24.5 C 926.833,24.5 997.167,24.5 1067.5,24.5C 1063.91,42.7877 1060.58,61.1211 1057.5,79.5C 991.499,79.3333 925.499,79.5 859.5,80C 869.44,83.2023 879.44,86.2023 889.5,89C 890.516,89.5194 891.182,90.3527 891.5,91.5C 884.435,126.325 877.435,161.158 870.5,196C 871.083,198.499 872.416,200.499 874.5,202C 889.448,203.134 904.448,203.634 919.5,203.5C 934.876,203.626 950.21,203.126 965.5,202C 967.604,199.958 968.771,197.458 969,194.5C 971.029,184.857 972.862,175.191 974.5,165.5C 962.25,165.962 950.084,165.295 938,163.5C 928.027,159.408 922.86,151.908 922.5,141C 923.772,133.144 925.105,125.311 926.5,117.5C 969.5,117.5 1012.5,117.5 1055.5,117.5C 1049.16,151.676 1042,185.676 1034,219.5C 1024.77,239.729 1009.27,252.229 987.5,257C 931.833,257.667 876.167,257.667 820.5,257C 801.579,250.676 793.079,237.51 795,217.5C 806.128,162.861 817.128,108.194 828,53.5C 832.358,38.6425 841.858,28.9758 856.5,24.5 Z"/></g>
<g><path style="opacity:0.986" fill="#fefffe" d="M 1116.5,24.5 C 1179.17,24.3333 1241.83,24.5 1304.5,25C 1318.64,28.3204 1328.14,36.8204 1333,50.5C 1334.51,57.4333 1334.84,64.4333 1334,71.5C 1323.54,123.475 1313.2,175.475 1303,227.5C 1299.17,243.333 1289.33,253.167 1273.5,257C 1210.83,257.667 1148.17,257.667 1085.5,257C 1064.12,249.931 1054.28,235.098 1056,212.5C 1066.54,159.473 1077.21,106.473 1088,53.5C 1092.36,38.6425 1101.86,28.9758 1116.5,24.5 Z M 1119.5,80.5 C 1142,79.8334 1164.66,79.5 1187.5,79.5C 1210.92,79.3428 1234.25,79.8428 1257.5,81C 1259.43,84.2559 1259.93,87.7559 1259,91.5C 1252.44,124.154 1245.94,156.821 1239.5,189.5C 1239.71,190.994 1240.38,192.161 1241.5,193C 1252.45,196.488 1263.45,199.822 1274.5,203C 1227.79,203.98 1181.12,203.647 1134.5,202C 1132.42,200.499 1131.08,198.499 1130.5,196C 1137.44,161.158 1144.44,126.325 1151.5,91.5C 1151.18,90.3527 1150.52,89.5194 1149.5,89C 1139.51,86.0582 1129.51,83.2249 1119.5,80.5 Z"/></g>
<g><path style="opacity:0.976" fill="#fefffe" d="M 335.5,117.5 C 394.501,117.333 453.501,117.5 512.5,118C 520.872,134.578 529.372,151.078 538,167.5C 550.308,151.024 562.808,134.691 575.5,118.5C 592.49,117.334 609.49,117.167 626.5,118C 604.045,146.124 581.211,173.957 558,201.5C 554.39,220.16 550.89,238.826 547.5,257.5C 531.819,257.833 516.152,257.499 500.5,256.5C 504.167,238.5 507.833,220.5 511.5,202.5C 497,174.833 482.5,147.167 468,119.5C 465.13,130.015 462.964,140.681 461.5,151.5C 431.831,151.333 402.165,151.5 372.5,152C 370.851,158.075 369.518,164.241 368.5,170.5C 393.502,170.333 418.502,170.5 443.5,171C 440.851,182.076 438.518,193.242 436.5,204.5C 411.5,204.5 386.5,204.5 361.5,204.5C 360.423,210.885 359.09,217.219 357.5,223.5C 387.167,224.167 416.833,224.833 446.5,225.5C 444.039,235.805 441.706,246.138 439.5,256.5C 395.838,257.5 352.172,257.833 308.5,257.5C 317.242,210.789 326.242,164.122 335.5,117.5 Z"/></g>
<g><path style="opacity:0.98" fill="#fefffe" d="M 631.5,117.5 C 680.833,117.5 730.167,117.5 779.5,117.5C 779.832,128.853 779.499,140.186 778.5,151.5C 744.324,175.421 710.324,199.588 676.5,224C 706.5,224.333 736.5,224.667 766.5,225C 764.107,235.46 761.774,245.96 759.5,256.5C 710.171,257.5 660.838,257.833 611.5,257.5C 611.168,246.147 611.501,234.814 612.5,223.5C 646.167,199.667 679.833,175.833 713.5,152C 683.833,151.667 654.167,151.333 624.5,151C 626.893,139.867 629.227,128.7 631.5,117.5 Z"/></g>
</svg>
