<?xml version="1.0" encoding="UTF-8"?>
<!DOCTYPE svg PUBLIC "-//W3C//DTD SVG 1.1//EN" "http://www.w3.org/Graphics/SVG/1.1/DTD/svg11.dtd">
<svg xmlns="http://www.w3.org/2000/svg" version="1.1" width="1452px" height="259px" style="shape-rendering:geometricPrecision; text-rendering:geometricPrecision; image-rendering:optimizeQuality; fill-rule:evenodd; clip-rule:evenodd" xmlns:xlink="http://www.w3.org/1999/xlink">
<g><path style="opacity:0.982" fill="#fefffe" d="M 118.5,12.5 C 142.176,12.1669 165.843,12.5003 189.5,13.5C 183.443,40.1093 178.443,66.776 174.5,93.5C 211.026,66.4735 247.693,39.6401 284.5,13C 312.5,12.3333 340.5,12.3333 368.5,13C 326.215,44.9505 284.215,77.2838 242.5,110C 272.833,155 303.167,200 333.5,245C 305.494,245.833 277.494,245.667 249.5,244.5C 229.225,213.56 208.558,182.894 187.5,152.5C 167.472,167.183 147.806,182.349 128.5,198C 136.96,194.775 145.293,190.942 153.5,186.5C 150.647,205.778 146.98,225.111 142.5,244.5C 118.833,245.833 95.1667,245.833 71.5,244.5C 87.1724,167.138 102.839,89.8042 118.5,12.5 Z"/></g>
<g><path style="opacity:0.984" fill="#fefffe" d="M 901.5,12.5 C 971.833,12.5 1042.17,12.5 1112.5,12.5C 1108.91,30.7877 1105.58,49.1211 1102.5,67.5C 1036.5,67.3333 970.499,67.5 904.5,68C 914.44,71.2023 924.44,74.2023 934.5,77C 935.516,77.5194 936.182,78.3527 936.5,79.5C 929.435,114.325 922.435,149.158 915.5,184C 916.083,186.499 917.416,188.499 919.5,190C 934.448,191.134 949.448,191.634 964.5,191.5C 979.876,191.626 995.21,191.126 1010.5,190C 1012.6,187.958 1013.77,185.458 1014,182.5C 1016.03,172.857 1017.86,163.191 1019.5,153.5C 1007.25,153.962 995.084,153.295 983,151.5C 973.027,147.408 967.86,139.908 967.5,129C 968.772,121.144 970.105,113.311 971.5,105.5C 1014.5,105.5 1057.5,105.5 1100.5,105.5C 1094.16,139.676 1087,173.676 1079,207.5C 1069.77,227.729 1054.27,240.229 1032.5,245C 976.833,245.667 921.167,245.667 865.5,245C 846.579,238.676 838.079,225.51 840,205.5C 851.128,150.861 862.128,96.1939 873,41.5C 877.358,26.6425 886.858,16.9758 901.5,12.5 Z"/></g>
<g><path style="opacity:0.986" fill="#fefffe" d="M 1161.5,12.5 C 1224.17,12.3333 1286.83,12.5 1349.5,13C 1363.64,16.3204 1373.14,24.8204 1378,38.5C 1379.51,45.4333 1379.84,52.4333 1379,59.5C 1368.54,111.475 1358.2,163.475 1348,215.5C 1344.17,231.333 1334.33,241.167 1318.5,245C 1255.83,245.667 1193.17,245.667 1130.5,245C 1109.12,237.931 1099.28,223.098 1101,200.5C 1111.54,147.473 1122.21,94.4728 1133,41.5C 1137.36,26.6425 1146.86,16.9758 1161.5,12.5 Z M 1164.5,68.5 C 1187,67.8334 1209.66,67.5 1232.5,67.5C 1255.92,67.3428 1279.25,67.8428 1302.5,69C 1304.43,72.2559 1304.93,75.7559 1304,79.5C 1297.44,112.154 1290.94,144.821 1284.5,177.5C 1284.71,178.994 1285.38,180.161 1286.5,181C 1297.45,184.488 1308.45,187.822 1319.5,191C 1272.79,191.98 1226.12,191.647 1179.5,190C 1177.42,188.499 1176.08,186.499 1175.5,184C 1182.44,149.158 1189.44,114.325 1196.5,79.5C 1196.18,78.3527 1195.52,77.5194 1194.5,77C 1184.51,74.0582 1174.51,71.2249 1164.5,68.5 Z"/></g>
<g><path style="opacity:0.976" fill="#fefffe" d="M 380.5,105.5 C 439.501,105.333 498.501,105.5 557.5,106C 565.872,122.578 574.372,139.078 583,155.5C 595.308,139.024 607.808,122.691 620.5,106.5C 637.49,105.334 654.49,105.167 671.5,106C 649.045,134.124 626.211,161.957 603,189.5C 599.39,208.16 595.89,226.826 592.5,245.5C 576.819,245.833 561.152,245.499 545.5,244.5C 549.167,226.5 552.833,208.5 556.5,190.5C 542,162.833 527.5,135.167 513,107.5C 510.13,118.015 507.964,128.681 506.5,139.5C 476.831,139.333 447.165,139.5 417.5,140C 415.851,146.075 414.518,152.241 413.5,158.5C 438.502,158.333 463.502,158.5 488.5,159C 485.851,170.076 483.518,181.242 481.5,192.5C 456.5,192.5 431.5,192.5 406.5,192.5C 405.423,198.885 404.09,205.219 402.5,211.5C 432.167,212.167 461.833,212.833 491.5,213.5C 489.039,223.805 486.706,234.138 484.5,244.5C 440.838,245.5 397.172,245.833 353.5,245.5C 362.242,198.789 371.242,152.122 380.5,105.5 Z"/></g>
<g><path style="opacity:0.98" fill="#fefffe" d="M 676.5,105.5 C 725.833,105.5 775.167,105.5 824.5,105.5C 824.832,116.853 824.499,128.186 823.5,139.5C 789.324,163.421 755.324,187.588 721.5,212C 751.5,212.333 781.5,212.667 811.5,213C 809.107,223.46 806.774,233.96 804.5,244.5C 755.171,245.5 705.838,245.833 656.5,245.5C 656.168,234.147 656.501,222.814 657.5,211.5C 691.167,187.667 724.833,163.833 758.5,140C 728.833,139.667 699.167,139.333 669.5,139C 671.893,127.867 674.227,116.7 676.5,105.5 Z"/></g>
</svg>
