<?xml version="1.0" standalone="no"?>
<!DOCTYPE svg PUBLIC "-//W3C//DTD SVG 20010904//EN"
 "http://www.w3.org/TR/2001/REC-SVG-20010904/DTD/svg10.dtd">
<svg version="1.0" xmlns="http://www.w3.org/2000/svg"
 width="512.000000pt" height="512.000000pt" viewBox="0 0 512.000000 512.000000"
 preserveAspectRatio="xMidYMid meet">
<metadata>
Created by potrace 1.14, written by Peter Selinger 2001-2017
</metadata>
<g transform="translate(0.000000,512.000000) scale(0.100000,-0.100000)"
fill="#000000" stroke="none">
<path d="M2245 4938 c-170 -99 -406 -236 -523 -303 l-212 -123 72 -63 c40 -35
78 -68 84 -74 14 -13 109 -95 213 -184 46 -40 90 -79 98 -87 13 -13 19 -12 52
7 20 12 142 82 271 156 129 75 240 140 246 144 7 6 85 -33 219 -111 114 -66
209 -120 210 -120 2 0 33 -18 69 -40 36 -22 71 -40 78 -40 7 0 29 14 48 31 19
17 62 54 94 82 192 167 286 248 318 277 l28 25 -521 300 c-287 165 -524 301
-528 302 -3 0 -145 -80 -316 -179z"/>
<path d="M1365 4431 c-6 -5 -230 -136 -500 -291 -269 -155 -497 -289 -505
-296 -13 -13 -15 -95 -16 -614 0 -330 2 -600 4 -600 2 0 84 27 181 61 97 34
231 80 299 102 l122 42 0 326 0 327 280 162 c154 89 280 168 280 175 0 7 -9
57 -19 111 -35 176 -60 308 -66 344 -8 44 -24 119 -31 143 -6 19 -15 22 -29 8z"/>
<path d="M3686 4248 c-20 -106 -39 -206 -42 -223 -3 -16 -7 -34 -8 -40 -15
-69 -28 -156 -24 -167 3 -7 23 -22 44 -34 22 -11 131 -74 244 -139 113 -65
217 -125 232 -132 15 -8 30 -18 33 -24 4 -5 6 -154 6 -332 l1 -323 91 -31 c51
-17 184 -63 295 -102 112 -39 207 -71 211 -71 4 0 7 272 7 605 l-1 605 -30 18
c-16 10 -50 30 -75 44 -25 14 -245 141 -489 282 -244 141 -446 256 -451 256
-4 0 -24 -87 -44 -192z"/>
<path d="M1280 2980 c-11 -7 -15 -29 -14 -96 l0 -86 86 -82 85 -81 -1 -50 -1
-50 -45 0 c-45 0 -45 0 -46 35 -3 75 -1 71 -41 68 l-38 -3 1 -73 c0 -40 5 -77
10 -82 14 -14 210 -16 227 -2 11 9 14 34 13 102 l-2 89 -87 82 c-88 82 -88 83
-85 128 l3 46 42 1 c45 1 49 -4 52 -59 1 -40 7 -46 44 -43 l32 3 0 68 c1 44
-4 73 -13 81 -16 16 -198 20 -222 4z"/>
<path d="M1579 2905 c0 -107 0 -175 0 -322 l1 -118 32 2 c18 1 36 2 39 2 3 1
4 62 3 137 -1 75 0 133 4 130 3 -4 7 -12 8 -19 7 -47 49 -193 57 -199 24 -15
37 10 62 115 15 62 29 114 30 116 2 2 3 -58 2 -133 0 -74 2 -138 5 -142 4 -3
20 -7 37 -8 36 -2 32 -33 32 274 0 110 0 211 0 225 -1 22 -6 25 -36 25 -34 0
-34 -1 -55 -72 -12 -40 -32 -107 -44 -148 l-22 -75 -17 60 c-9 33 -26 99 -39
147 l-23 88 -37 0 -38 0 -1 -85z"/>
<path d="M2029 2968 c0 -13 -2 -30 -4 -38 -1 -8 -8 -40 -14 -70 -6 -30 -13
-64 -15 -75 -2 -11 -13 -69 -24 -130 -12 -60 -23 -122 -26 -137 -2 -15 -8 -33
-11 -38 -5 -8 7 -10 36 -8 28 2 43 8 45 18 1 8 5 26 7 40 3 14 6 28 6 32 2 12
92 7 96 -5 2 -7 6 -29 10 -49 6 -36 7 -38 46 -38 36 0 39 2 34 23 -7 33 -33
168 -39 202 -3 17 -15 80 -26 140 -12 61 -24 120 -26 133 -4 19 -11 22 -49 22
-40 0 -45 -3 -46 -22z m60 -169 c1 -23 4 -46 7 -51 3 -4 7 -32 10 -61 l5 -54
-36 1 c-33 1 -36 3 -32 26 3 14 11 62 17 107 13 88 24 101 29 32z"/>
<path d="M2263 2731 l0 -259 34 -4 c19 -2 36 -1 39 3 2 4 4 106 4 228 1 121 4
221 8 222 4 0 26 1 48 2 l42 2 -2 -85 -1 -85 -38 3 -38 4 5 -39 c3 -21 19 -76
37 -123 17 -47 34 -95 36 -107 5 -20 12 -23 50 -23 39 0 44 2 38 18 -22 55
-75 204 -75 212 0 6 11 10 24 10 13 0 28 6 34 13 5 6 9 64 8 130 -1 92 -4 120
-16 127 -8 5 -65 10 -127 10 l-111 0 1 -259z"/>
<path d="M2552 2955 l-1 -35 44 0 45 0 -1 -221 c0 -121 1 -222 3 -224 5 -5 30
-8 54 -6 20 1 21 5 20 226 l-1 225 46 0 c45 0 45 0 44 33 l-2 32 -125 3 -125
3 -1 -36z"/>
<path d="M2984 2730 l0 -260 38 0 38 0 0 115 0 115 53 0 53 0 0 -111 c-1 -61
1 -114 4 -117 6 -8 69 -10 72 -2 0 3 2 121 3 263 l2 257 -39 0 c-23 0 -38 -5
-39 -12 -1 -7 -2 -51 -4 -98 -1 -47 -3 -90 -4 -96 0 -5 -22 -10 -48 -9 l-48 1
-3 107 -3 107 -37 0 -38 0 0 -260z"/>
<path d="M3308 2978 c-3 -11 -3 -471 1 -503 1 -10 178 -12 204 -2 15 5 16 34
3 55 -4 7 -28 12 -59 11 -29 -1 -57 -1 -62 0 -6 1 -10 34 -10 79 l0 77 56 3
c55 3 57 4 61 33 6 37 -1 41 -55 38 -24 -2 -47 0 -53 3 -5 4 -9 37 -9 75 l0
68 70 5 70 5 0 30 -1 30 -106 3 c-79 2 -107 -1 -110 -10z"/>
<path d="M3606 2863 l45 -128 -36 -100 c-20 -55 -42 -114 -50 -132 l-14 -31
40 -4 c47 -4 47 -5 79 99 12 40 27 70 31 67 5 -3 9 -10 9 -16 0 -6 9 -42 20
-79 l21 -69 43 0 44 0 -34 93 c-19 50 -41 111 -49 135 -16 46 -21 28 61 245 8
20 14 40 14 43 0 3 -19 4 -41 2 l-42 -3 -25 -80 -26 -80 -25 83 -26 82 -42 0
-42 0 45 -127z"/>
<path d="M344 1885 l1 -606 510 -296 c450 -261 567 -325 543 -299 -3 4 -2 22
3 39 4 18 11 48 14 67 3 19 10 53 15 75 5 22 11 55 14 73 9 50 15 85 21 112
26 134 28 144 41 221 l6 35 -194 111 c-106 61 -232 134 -280 163 l-88 51 -2
327 -3 326 -80 27 c-44 15 -165 58 -270 94 -104 37 -197 68 -205 70 -8 2 -22
6 -31 10 -14 5 -15 -53 -15 -600z"/>
<path d="M4665 2455 c-49 -17 -159 -56 -243 -85 -84 -29 -174 -60 -200 -69
l-47 -17 -2 -329 c-1 -181 -6 -331 -10 -332 -23 -8 -549 -317 -555 -326 -4 -6
-5 -14 -3 -17 2 -4 7 -21 10 -38 3 -18 14 -77 25 -132 11 -55 22 -115 25 -133
3 -17 15 -75 25 -127 24 -116 28 -141 29 -157 1 -7 6 -13 11 -13 10 0 845 478
1015 581 l30 18 1 606 c0 426 -3 605 -10 604 -6 -1 -51 -16 -101 -34z"/>
<path d="M1242 2251 c2 -78 7 -131 13 -131 6 0 9 35 8 86 0 47 3 82 7 77 4 -4
18 -39 30 -78 41 -123 50 -117 50 32 0 73 -4 134 -9 137 -14 9 -18 -14 -14
-93 3 -86 -5 -83 -38 12 -40 118 -50 109 -47 -42z"/>
<path d="M1491 2358 c-8 -23 -6 -226 2 -235 13 -12 86 -12 94 0 12 19 11 247
-1 248 -63 7 -89 4 -95 -13z m80 -19 c0 -10 1 -37 1 -59 0 -151 0 -147 -29
-145 l-28 1 -3 104 c-3 106 0 114 38 117 13 1 20 -4 21 -18z"/>
<path d="M1729 2375 c-3 -24 15 -185 27 -244 3 -14 9 -20 14 -15 8 8 13 37 26
129 1 11 3 25 4 30 3 22 21 -41 26 -94 6 -59 19 -85 27 -55 3 11 11 62 17 114
7 52 14 103 16 112 4 22 -12 33 -19 14 -3 -8 -9 -46 -13 -85 -7 -72 -12 -84
-18 -40 -23 170 -40 184 -53 41 -3 -34 -9 -65 -13 -67 -4 -2 -7 1 -7 8 -1 47
-16 144 -24 152 -6 6 -9 6 -10 0z"/>
<path d="M2183 2367 c-8 -13 -9 -215 -1 -236 5 -14 16 -18 45 -17 21 1 43 5
50 9 11 7 15 246 4 248 -29 6 -93 4 -98 -4z m78 -21 c1 -6 2 -55 3 -108 2
-101 -2 -109 -40 -104 -17 3 -19 14 -21 102 -1 54 -1 104 1 110 2 5 16 10 30
10 14 0 27 -5 27 -10z"/>
<path d="M2426 2371 c-8 -17 0 -255 9 -251 6 3 10 53 10 118 0 61 3 113 8 113
48 7 51 4 53 -44 2 -43 0 -47 -21 -47 l-23 0 19 -57 c11 -32 22 -66 25 -75 6
-18 24 -25 24 -10 0 5 -9 34 -19 64 -19 55 -19 56 0 61 16 4 19 14 19 66 0 34
-3 61 -7 62 -35 5 -94 5 -97 0z"/>
<path d="M2830 2246 c0 -84 4 -136 10 -136 6 0 10 38 11 93 0 99 0 99 45 -20
15 -40 30 -70 34 -68 9 6 7 251 -2 260 -11 12 -17 -28 -14 -107 2 -43 2 -78 1
-78 -1 0 -17 40 -34 90 -18 49 -37 92 -42 95 -5 4 -9 -49 -9 -129z"/>
<path d="M3075 2251 c1 -69 3 -128 4 -131 2 -10 67 -5 69 5 1 6 -7 10 -17 10
-28 0 -33 9 -34 57 -1 39 2 43 23 43 34 1 37 23 3 27 -28 3 -31 12 -24 84 1 6
11 11 24 10 12 -1 22 3 22 9 0 5 -16 10 -36 11 l-37 2 3 -127z"/>
<path d="M3284 2352 c38 -225 46 -256 59 -235 3 5 9 25 12 44 3 19 7 45 10 59
3 14 7 41 10 60 3 19 8 50 11 68 4 19 2 32 -4 32 -10 0 -15 -16 -26 -90 -17
-110 -25 -136 -27 -89 -1 13 -3 33 -5 44 -1 11 -6 43 -10 72 -4 29 -13 54 -20
57 -11 4 -13 -2 -10 -22z"/>
<path d="M3519 2376 c-7 -7 -1 -250 6 -254 16 -10 74 -11 81 -1 5 9 -1 11 -41
13 -17 1 -20 8 -20 51 0 37 4 50 15 51 8 1 21 2 28 3 23 2 2 21 -24 21 -22 0
-24 4 -24 49 0 48 0 48 31 45 21 -3 29 0 26 9 -3 9 -71 20 -78 13z"/>
<path d="M3736 2370 c-6 -12 0 -249 6 -255 12 -13 18 37 14 125 -3 96 3 118
36 116 20 -1 23 -6 23 -46 0 -39 -3 -45 -22 -48 l-21 -3 22 -65 c13 -36 28
-70 35 -77 17 -17 14 4 -8 68 -16 46 -17 55 -5 55 21 0 31 34 24 88 l-5 47
-48 0 c-27 1 -50 -2 -51 -5z"/>
<path d="M1885 933 c-61 -52 -123 -107 -140 -122 -16 -14 -64 -55 -105 -91
-41 -35 -87 -75 -102 -89 l-27 -26 525 -303 525 -303 232 134 c128 74 363 209
522 302 160 92 291 168 292 169 2 1 -39 38 -90 81 -50 43 -97 83 -102 89 -6 6
-39 36 -75 66 -36 30 -67 57 -70 60 -3 3 -35 32 -72 64 -44 38 -73 56 -83 52
-9 -3 -137 -76 -285 -161 l-270 -156 -252 147 c-139 80 -267 154 -283 165
l-30 18 -110 -96z"/>
</g>
</svg>
