<?xml version="1.0" standalone="no"?>
<!DOCTYPE svg PUBLIC "-//W3C//DTD SVG 20010904//EN"
 "http://www.w3.org/TR/2001/REC-SVG-20010904/DTD/svg10.dtd">
<svg version="1.0" xmlns="http://www.w3.org/2000/svg"
 width="512.000000pt" height="512.000000pt" viewBox="0 0 512.000000 512.000000"
 preserveAspectRatio="xMidYMid meet">
<metadata>
Created by potrace 1.14, written by Peter Selinger 2001-2017
</metadata>
<g transform="translate(0.000000,512.000000) scale(0.100000,-0.100000)"
fill="#000000" stroke="none">
<path d="M2380 5016 c-96 -57 -331 -193 -523 -303 l-347 -201 72 -63 c40 -35
86 -76 103 -91 142 -126 308 -263 316 -261 7 3 101 56 412 236 l147 85 193
-110 c105 -61 229 -133 275 -159 45 -27 88 -49 95 -49 7 0 28 14 47 31 19 17
62 54 94 82 192 167 286 248 318 277 l28 25 -521 300 c-287 165 -524 301 -528
301 -3 1 -85 -44 -181 -100z"/>
<path d="M1365 4431 c-6 -5 -230 -136 -500 -291 -269 -155 -497 -289 -505
-296 -13 -13 -15 -95 -15 -614 -1 -330 2 -600 5 -600 3 0 84 28 180 61 96 34
230 80 298 102 l122 42 0 326 0 327 280 162 c154 89 280 168 280 175 0 7 -9
57 -19 111 -11 55 -27 137 -36 184 -25 128 -25 128 -31 158 -3 15 -7 41 -10
57 -10 56 -25 105 -32 105 -5 0 -12 -4 -17 -9z"/>
<path d="M3689 4268 c-18 -95 -33 -177 -34 -183 0 -5 -4 -23 -8 -40 -3 -16 -9
-46 -12 -65 -3 -19 -8 -42 -10 -50 -2 -8 -6 -32 -10 -54 -3 -21 -7 -42 -10
-46 -5 -7 26 -32 70 -55 11 -6 112 -65 225 -130 113 -65 217 -125 232 -132 15
-8 30 -19 34 -24 3 -5 6 -155 6 -332 l0 -323 81 -28 c45 -15 178 -61 295 -101
117 -41 216 -75 220 -75 4 0 8 272 7 606 l0 605 -55 31 c-30 17 -120 70 -200
116 -80 47 -163 95 -185 107 -22 12 -166 95 -319 183 -154 89 -282 162 -286
162 -4 0 -22 -78 -41 -172z"/>
<path d="M345 1885 l0 -606 195 -113 c644 -373 842 -486 850 -486 6 0 9 3 8 8
-1 4 1 23 5 42 4 19 9 46 12 60 3 14 9 48 15 75 5 28 12 64 15 80 3 17 7 41
10 55 3 14 8 41 11 60 3 19 7 37 9 40 2 3 6 24 9 46 4 22 9 51 11 64 3 14 8
41 11 61 l6 35 -194 111 c-106 61 -232 134 -280 163 l-88 51 -2 327 -3 326
-80 27 c-44 15 -178 62 -299 103 -120 42 -219 76 -220 76 -1 0 -2 -272 -1
-605z"/>
<path d="M4665 2455 c-49 -17 -159 -56 -243 -85 -84 -29 -174 -60 -200 -69
l-47 -17 -2 -329 c-1 -181 -5 -331 -10 -332 -23 -8 -549 -317 -555 -326 -4 -6
-5 -14 -3 -17 2 -4 7 -21 10 -38 3 -18 14 -77 25 -132 11 -55 22 -115 25 -133
3 -17 15 -75 25 -127 24 -116 28 -141 29 -157 1 -7 6 -13 11 -13 10 0 848 480
1015 581 l30 18 0 606 c1 410 -3 605 -10 604 -5 -1 -50 -16 -100 -34z"/>
<path d="M1884 932 c-60 -52 -122 -106 -139 -121 -16 -14 -76 -66 -133 -115
-56 -49 -101 -90 -100 -91 2 -1 238 -138 526 -304 l523 -302 172 99 c95 55
330 191 522 302 193 111 351 203 353 205 1 1 -39 37 -90 80 -51 43 -97 83
-103 89 -5 6 -26 24 -45 40 -35 28 -129 110 -199 173 -20 18 -40 33 -44 33 -7
0 -140 -73 -260 -144 -18 -10 -94 -54 -169 -98 l-137 -79 -228 132 c-125 73
-253 147 -284 165 l-56 31 -109 -95z"/>
</g>
</svg>
